<svg width="110" height="80" viewBox="0 0 110 80" fill="none" xmlns="http://www.w3.org/2000/svg">
<path d="M109.601 69.7666H0V69.8214H109.601V69.7666Z" fill="#EBEBEB"/>
<path d="M18.7593 71.8534H11.4993V71.9082H18.7593V71.8534Z" fill="#EBEBEB"/>
<path d="M49.6623 71.2594H37.5142V71.3142H49.6623V71.2594Z" fill="#EBEBEB"/>
<path d="M24.1538 73.1555H19.9474V73.2103H24.1538V73.1555Z" fill="#EBEBEB"/>
<path d="M93.9608 71.8271H84.4935V71.8819H93.9608V71.8271Z" fill="#EBEBEB"/>
<path d="M97.3015 71.8271H95.9139V71.8819H97.3015V71.8271Z" fill="#EBEBEB"/>
<path d="M71.0323 72.5965H60.7649V72.6513H71.0323V72.5965Z" fill="#EBEBEB"/>
<path d="M65.287 2.25031H22.968V32.6295H65.287V2.25031Z" fill="#FAFAFA"/>
<path d="M62.878 32.6317L52.1152 2.25031H44.0376L54.8004 32.6317H62.878Z" fill="white"/>
<path d="M41.1573 32.6317L30.3945 2.25031H27.4484L38.2112 32.6317H41.1573Z" fill="white"/>
<path d="M20.9513 1.20691H67.3059C67.3305 1.20691 67.3549 1.2118 67.3777 1.2213C67.4004 1.2308 67.4211 1.24472 67.4384 1.26225C67.4557 1.27979 67.4694 1.30059 67.4787 1.32345C67.4879 1.34631 67.4925 1.37077 67.4922 1.39542C67.4922 1.44484 67.4726 1.49223 67.4376 1.52717C67.4027 1.56211 67.3553 1.58174 67.3059 1.58174H20.9513C20.9017 1.58175 20.8541 1.56219 20.8188 1.52731C20.7835 1.49243 20.7634 1.44504 20.7628 1.39542C20.7628 1.34543 20.7826 1.29748 20.818 1.26212C20.8534 1.22677 20.9013 1.20691 20.9513 1.20691Z" fill="#E0E0E0"/>
<path d="M44.3796 2.18674H43.8776V32.6974H44.3796V2.18674Z" fill="#F0F0F0"/>
<path d="M43.8754 2.18674H43.6255V32.6974H43.8754V2.18674Z" fill="#E0E0E0"/>
<path d="M22.6764 17.1889V17.6909L65.5808 17.6909V17.1889L22.6764 17.1889Z" fill="#F0F0F0"/>
<path d="M22.6764 32.4147V1.94562H65.5786V32.4147V32.9166H22.6764V32.4147ZM65.0788 32.4147V2.46074H23.1784V32.4147H65.0788Z" fill="#F0F0F0"/>
<path d="M22.6742 1.95877H22.4243V32.9232H22.6742V1.95877Z" fill="#E0E0E0"/>
<path opacity="0.5" d="M28.8974 0.746582V36.4239H19.84L21.5015 0.746582H28.8974Z" fill="#EBEBEB"/>
<path opacity="0.5" d="M59.1077 0.746582V36.4239H68.1652L66.5036 0.746582H59.1077Z" fill="#EBEBEB"/>
<path d="M17.0276 40.6983H13.573V68.7189H17.0276V40.6983Z" fill="#F0F0F0"/>
<path d="M52.2971 68.7188H14.2372V69.7666H52.2971V68.7188Z" fill="#F0F0F0"/>
<path d="M17.0298 68.7188H52.9613V40.6983H17.0298V68.7188Z" fill="#F5F5F5"/>
<path d="M16.6703 39.7842H13.139V40.6983H16.6703V39.7842Z" fill="#F0F0F0"/>
<path d="M16.6681 40.6983L53.3932 40.6983V39.7842L16.6681 39.7842V40.6983Z" fill="#FAFAFA"/>
<path d="M51.7185 56.4677H18.2705V42.6163H51.7185V56.4677ZM18.5028 56.2353H51.4861V42.8487H18.5028V56.2353Z" fill="#E0E0E0"/>
<path d="M51.7185 66.7986H18.2705V57.853H51.7185V66.7986ZM18.5028 66.5663H51.4861V58.0854H18.5028V66.5663Z" fill="#E0E0E0"/>
<path d="M46.9048 42.7325H23.0841C22.9146 42.7325 22.7773 42.8699 22.7773 43.0394V43.1687C22.7773 43.3382 22.9146 43.4756 23.0841 43.4756H46.9048C47.0743 43.4756 47.2117 43.3382 47.2117 43.1687V43.0394C47.2117 42.8699 47.0743 42.7325 46.9048 42.7325Z" fill="#E0E0E0"/>
<path d="M46.9048 57.9692H23.0841C22.9146 57.9692 22.7773 58.1066 22.7773 58.2761V58.4054C22.7773 58.5749 22.9146 58.7123 23.0841 58.7123H46.9048C47.0743 58.7123 47.2117 58.5749 47.2117 58.4054V58.2761C47.2117 58.1066 47.0743 57.9692 46.9048 57.9692Z" fill="#E0E0E0"/>
<path d="M76.2515 68.4207H96.3479L96.3479 7.10561H76.2515V68.4207Z" fill="#F0F0F0"/>
<path d="M76.2515 7.10782H75.6136V68.4229H76.2515V7.10782Z" fill="#E0E0E0"/>
<path d="M79.5132 66.0818H93.0884V9.4445H79.5132V66.0818Z" fill="#FAFAFA"/>
<path d="M54.8004 79.6658C78.2731 79.6658 97.3015 78.5548 97.3015 77.1844C97.3015 75.814 78.2731 74.7031 54.8004 74.7031C31.3278 74.7031 12.2994 75.814 12.2994 77.1844C12.2994 78.5548 31.3278 79.6658 54.8004 79.6658Z" fill="#F5F5F5"/>
<path d="M31.4248 75.2752L33.1411 74.6242L32.0889 70.4769L30.3726 71.1279L31.4248 75.2752Z" fill="#B55B52"/>
<path d="M18.5291 75.3103H20.3638L20.64 71.0577H18.8031L18.5291 75.3103Z" fill="#B55B52"/>
<path d="M20.548 75.0976H18.3099C18.274 75.0971 18.239 75.1093 18.2113 75.1322C18.1836 75.1551 18.1649 75.1872 18.1587 75.2226L17.8781 76.8534C17.8725 76.8941 17.8756 76.9356 17.8873 76.9749C17.8991 77.0143 17.9191 77.0507 17.9462 77.0817C17.9732 77.1126 18.0065 77.1374 18.0439 77.1544C18.0813 77.1714 18.122 77.1801 18.1631 77.18C18.882 77.1669 19.4059 77.1252 20.3134 77.1252C20.8702 77.1252 22.5559 77.1844 23.3275 77.1844C24.099 77.1844 24.1604 76.4216 23.8404 76.3514C22.4112 76.0424 21.3239 75.6171 20.8505 75.2094C20.766 75.1376 20.6589 75.098 20.548 75.0976Z" fill="#263238"/>
<path d="M33.0534 74.4313L31.1793 75.1415C31.1451 75.1545 31.1163 75.1787 31.0976 75.2101C31.0789 75.2416 31.0714 75.2784 31.0762 75.3146L31.3174 76.9674C31.3216 77.0082 31.3352 77.0474 31.3571 77.082C31.379 77.1166 31.4087 77.1457 31.4437 77.1669C31.4787 77.1882 31.5182 77.201 31.5591 77.2044C31.5999 77.2078 31.641 77.2017 31.679 77.1866C32.3498 76.9192 32.9219 76.5794 33.7768 76.2725C34.7535 75.955 35.6928 75.5324 36.5782 75.0121C37.2139 74.6088 36.9465 73.8416 36.6461 73.9622C35.2827 74.5102 34.9473 74.6899 33.5159 74.4137C33.3631 74.3766 33.203 74.3826 33.0534 74.4313Z" fill="#263238"/>
<path d="M28.2113 19.37C28.7878 20.3914 29.3971 21.4436 30.0109 22.4607C30.6247 23.4778 31.2538 24.4949 31.9224 25.4419C32.0824 25.6808 32.2621 25.9109 32.4243 26.1323C32.4603 26.1968 32.5087 26.2534 32.5668 26.2989C32.6694 26.3515 32.7862 26.3699 32.9 26.3515C33.1095 26.3302 33.3152 26.2808 33.5116 26.2047C34.0089 26.0095 34.4837 25.7611 34.9276 25.4638C35.1643 25.3081 35.4055 25.1481 35.64 24.9771C35.8746 24.8062 36.1113 24.622 36.3261 24.4576L37.3542 25.3739C37.1667 25.6448 36.9655 25.906 36.7514 26.1564C36.5444 26.4091 36.3249 26.6512 36.0938 26.882C35.8566 27.1209 35.6055 27.3456 35.3419 27.555C35.0672 27.7796 34.7738 27.9806 34.4651 28.1556C34.1166 28.3575 33.7419 28.5102 33.3515 28.6093C32.8663 28.7345 32.3572 28.7345 31.8719 28.6093C31.3475 28.4633 30.8773 28.1669 30.5195 27.7566C30.3003 27.5023 30.0811 27.2634 29.8838 27.0113C29.09 26.0265 28.3516 24.9984 27.672 23.9316C26.9925 22.875 26.3568 21.8163 25.7737 20.6896L28.2113 19.37Z" fill="#B65B52"/>
<path d="M24.9539 19.4555C24.4607 21.1389 27.9438 25.729 27.9438 25.729L31.4511 23.4691C30.7896 22.0092 29.9731 20.6247 29.0157 19.3393C27.5843 17.509 25.4975 17.6076 24.9539 19.4555Z" fill="#407BFF"/>
<path opacity="0.2" d="M24.9539 19.4555C24.4607 21.1389 27.9438 25.729 27.9438 25.729L31.4511 23.4691C30.7896 22.0092 29.9731 20.6247 29.0157 19.3393C27.5843 17.509 25.4975 17.6076 24.9539 19.4555Z" fill="black"/>
<path opacity="0.2" d="M27.0955 21.4305C27.8189 21.7395 28.882 23.48 29.4366 24.7711L27.9438 25.729C27.1117 24.6167 26.3629 23.4445 25.7036 22.2218C26.1749 21.6979 26.7141 21.2683 27.0955 21.4305Z" fill="black"/>
<path d="M36.1091 25.0298L36.7536 23.2257L38.5795 24.1025C38.5795 24.1025 38.2003 25.7093 36.8632 25.7071L36.1091 25.0298Z" fill="#B55B52"/>
<path d="M38.3778 22.0399L39.1516 22.8926L38.5795 24.0982L36.7536 23.2257L38.3778 22.0399Z" fill="#B55B52"/>
<path opacity="0.2" d="M32.0889 70.4791L32.6304 72.6163L30.914 73.2673L30.3726 71.1301L32.0889 70.4791Z" fill="black"/>
<path opacity="0.2" d="M18.8031 71.0599H20.64L20.4976 73.2498H18.6606L18.8031 71.0599Z" fill="black"/>
<path d="M16.7733 18.7102C18.7461 25.683 18.4261 33.081 18.5489 34.5848L28.3603 34.2165C30.0284 23.822 27.0451 18.0372 27.0451 18.0372C27.0451 18.0372 26.416 17.9167 25.5589 17.829C25.2915 17.8005 25.0021 17.7764 24.6997 17.761C24.5331 17.7501 24.3643 17.7457 24.1933 17.7413C22.8002 17.7649 21.4096 17.8688 20.0285 18.0526C19.7676 18.0854 19.5024 18.1227 19.2437 18.1666C18.9851 18.2104 18.7724 18.2499 18.551 18.2937C17.5361 18.4932 16.7733 18.7102 16.7733 18.7102Z" fill="#407BFF"/>
<path opacity="0.2" d="M16.7733 18.7102C18.7461 25.683 18.4261 33.081 18.5489 34.5848L28.3603 34.2165C30.0284 23.822 27.0451 18.0372 27.0451 18.0372C27.0451 18.0372 26.416 17.9167 25.5589 17.829C25.2915 17.8005 25.0021 17.7764 24.6997 17.761C24.5331 17.7501 24.3643 17.7457 24.1933 17.7413C22.8002 17.7649 21.4096 17.8688 20.0285 18.0526C19.7676 18.0854 19.5024 18.1227 19.2437 18.1666C18.9851 18.2104 18.7724 18.2499 18.551 18.2937C17.5361 18.4932 16.7733 18.7102 16.7733 18.7102Z" fill="black"/>
<path opacity="0.2" d="M18.8623 21.7023C19.0377 22.3752 18.836 25.455 18.1324 26.2134C18.0359 25.227 17.9132 24.199 17.7378 23.1446L18.8623 21.7023Z" fill="black"/>
<path d="M20.0833 13.3441C20.445 14.6593 20.8899 17.0968 20.0197 18.0591C20.8022 18.7299 21.815 19.4949 23.4086 19.4313C25.0022 19.3678 24.6449 18.2959 24.1823 17.7501C22.6611 17.5046 22.6172 16.3954 22.8014 15.3389L20.0833 13.3441Z" fill="#B55B52"/>
<path d="M23.4502 19.1968L23.7396 19.3919L22.683 19.701L22.9548 19.21L23.4502 19.1968Z" fill="#407BFF"/>
<path d="M23.8492 19.0938L23.7396 19.3919L24.8005 19.701L24.7282 19.1332L23.8492 19.0938Z" fill="#407BFF"/>
<path d="M19.3862 17.9474L19.8027 17.7391C19.8693 17.7057 19.9438 17.6914 20.018 17.6975C20.0923 17.7037 20.1634 17.7302 20.2236 17.7742C21.187 18.473 22.2886 18.9581 23.4546 19.1968C22.6172 19.5957 22.8233 20.6698 22.8233 20.6698C22.8233 20.6698 20.16 19.793 19.3161 18.2016C19.2922 18.1585 19.2861 18.1077 19.2993 18.0602C19.3124 18.0126 19.3436 17.9721 19.3862 17.9474Z" fill="white"/>
<path d="M24.647 17.6734L24.0355 17.5813C24.0197 17.5788 24.0035 17.5809 23.9889 17.5876C23.9744 17.5942 23.9621 17.605 23.9537 17.6186C23.9453 17.6322 23.941 17.648 23.9416 17.6639C23.9421 17.6799 23.9473 17.6954 23.9566 17.7084C24.1758 18.0131 24.5265 18.6817 23.8492 19.0938C24.6865 19.4927 24.9452 20.4726 24.9452 20.4726C24.9452 20.4726 26.0412 19.2954 24.7654 17.7413C24.7349 17.7057 24.6931 17.6817 24.647 17.6734Z" fill="white"/>
<path opacity="0.2" d="M21.1902 14.1464L22.797 15.3169C22.7505 15.5642 22.7263 15.815 22.7246 16.0666C22.1481 16.0271 21.3174 15.4594 21.2122 14.8654C21.1622 14.6289 21.1548 14.3855 21.1902 14.1464Z" fill="black"/>
<path d="M24.7413 10.6282C24.6668 11.2661 24.0552 11.8141 23.6606 11.9434L23.1674 9.17928C24.2744 8.39673 24.8443 9.73386 24.7413 10.6282Z" fill="#263238"/>
<path d="M19.5287 11.3932C19.8487 13.1863 19.943 14.2538 20.9623 15.0758C22.4967 16.3121 24.6295 15.227 24.8531 13.3748C25.0548 11.7067 24.498 9.05433 22.6479 8.5392C22.2404 8.42388 21.8102 8.4146 21.398 8.51224C20.9859 8.60988 20.6056 8.8112 20.2931 9.0971C19.9806 9.383 19.7464 9.744 19.6126 10.1459C19.4788 10.5477 19.4499 10.9771 19.5287 11.3932Z" fill="#B55B52"/>
<path d="M19.8706 12.6032C20.7014 13.0416 21.0653 12.053 21.0741 11.6497C21.0741 11.0096 20.8066 10.306 20.4756 10.0495C22.0802 10.0495 25.2542 9.9706 24.452 8.44277C23.6497 6.91493 22.0407 7.0881 20.8417 7.92545C20.2038 8.36386 18.1389 7.98244 18.6497 9.17271C17.5734 9.74483 18.5072 11.8777 19.8706 12.6032Z" fill="#263238"/>
<path d="M18.825 9.07406C18.539 9.07264 18.2612 8.97799 18.0337 8.80444C18.071 8.96467 18.1598 9.10825 18.2865 9.21318C18.4132 9.3181 18.5708 9.37857 18.7352 9.38533L18.825 9.07406Z" fill="#263238"/>
<path d="M18.8513 12.8684C19.057 13.281 19.4169 13.596 19.8531 13.7453C20.4318 13.9316 20.5633 13.4011 20.423 12.8443C20.2959 12.3402 20.0241 11.6585 19.4344 11.7133C18.8448 11.7681 18.6058 12.3643 18.8513 12.8684Z" fill="#B55B52"/>
<path d="M30.4975 53.6224C29.7523 48.0701 28.3603 34.2165 28.3603 34.2165L21.9202 34.4598C21.9202 34.4598 24.9627 48.3024 26.0631 53.9162C27.1635 59.5299 30.2279 73.0766 30.2279 73.0766L33.1345 71.9806C33.1345 71.9806 31.2757 59.3962 30.4975 53.6224Z" fill="#263238"/>
<path opacity="0.2" d="M24.3314 38.1906C23.801 38.3173 23.3087 38.5691 22.8956 38.925C23.505 41.7242 24.3007 45.409 24.9846 48.6553C25.4406 45.843 25.4537 40.5361 24.3314 38.1906Z" fill="black"/>
<path d="M24.8816 34.348C24.8816 34.348 23.5116 49.3765 22.8847 54.7162C22.1986 60.5667 21.3503 72.8267 21.3503 72.8267H17.9745C17.9745 72.8267 17.8364 61.9828 18.2727 56.2572C18.7702 49.736 18.5467 34.5848 18.5467 34.5848L24.8816 34.348Z" fill="#263238"/>
<path d="M21.7887 72.899H17.8299L17.7466 71.7153L22.1657 71.6386L21.7887 72.899Z" fill="#407BFF"/>
<path d="M33.5138 71.9061L30.0504 73.2191L29.6273 72.099L33.4765 70.5733L33.5138 71.9061Z" fill="#407BFF"/>
<path d="M22.3279 11.5905C22.3432 11.7396 22.4353 11.8492 22.5317 11.8382C22.6282 11.8272 22.6918 11.6979 22.6742 11.551C22.6567 11.4042 22.5668 11.2946 22.4704 11.3055C22.3739 11.3165 22.3104 11.4349 22.3279 11.5905Z" fill="#263238"/>
<path d="M23.9894 11.391C24.007 11.5379 24.099 11.6475 24.1933 11.6366C24.2876 11.6256 24.3555 11.4985 24.338 11.3516C24.3204 11.2047 24.2284 11.0929 24.1319 11.1039C24.0355 11.1149 23.9719 11.2442 23.9894 11.391Z" fill="#263238"/>
<path d="M23.4699 11.5247C23.6966 11.9541 23.9813 12.3502 24.3161 12.7019C24.2249 12.7866 24.1161 12.8502 23.9975 12.8881C23.8789 12.926 23.7534 12.9373 23.63 12.9211L23.4699 11.5247Z" fill="#A02724"/>
<path d="M23.0556 13.3792C22.8892 13.3788 22.7246 13.3444 22.5719 13.278C22.4192 13.2117 22.2817 13.1148 22.1679 12.9934C22.1636 12.989 22.1603 12.9838 22.1582 12.9781C22.1561 12.9724 22.1551 12.9663 22.1555 12.9602C22.1559 12.9541 22.1575 12.9482 22.1603 12.9427C22.1631 12.9373 22.167 12.9325 22.1718 12.9287C22.1765 12.9249 22.182 12.9221 22.1879 12.9205C22.1938 12.9189 22.1999 12.9186 22.206 12.9195C22.212 12.9204 22.2178 12.9226 22.2229 12.9259C22.2281 12.9292 22.2325 12.9335 22.2358 12.9386C22.364 13.0708 22.5214 13.171 22.6954 13.2312C22.8694 13.2913 23.0551 13.3097 23.2376 13.2849C23.2432 13.284 23.249 13.2843 23.2545 13.2857C23.2601 13.2871 23.2653 13.2896 23.2698 13.2931C23.2743 13.2966 23.2781 13.301 23.2808 13.306C23.2836 13.311 23.2853 13.3165 23.2858 13.3222C23.2871 13.3335 23.2839 13.3449 23.2769 13.3539C23.27 13.3629 23.2598 13.3688 23.2485 13.3704C23.1846 13.3787 23.1201 13.3816 23.0556 13.3792Z" fill="#263238"/>
<path d="M21.7536 11.1039C21.7393 11.1081 21.724 11.1081 21.7097 11.1039C21.6999 11.0982 21.6912 11.0906 21.6843 11.0816C21.6774 11.0725 21.6723 11.0622 21.6695 11.0512C21.6666 11.0401 21.666 11.0286 21.6676 11.0174C21.6693 11.0061 21.6732 10.9953 21.6791 10.9855C21.7459 10.8654 21.8404 10.7629 21.9548 10.6867C22.0691 10.6104 22.2001 10.5626 22.3367 10.5471C22.3482 10.5465 22.3597 10.5482 22.3706 10.5521C22.3814 10.5559 22.3914 10.5619 22.4 10.5697C22.4085 10.5774 22.4155 10.5867 22.4204 10.5972C22.4253 10.6076 22.4282 10.6189 22.4287 10.6304C22.4293 10.6418 22.4276 10.6532 22.4237 10.664C22.4198 10.6747 22.4138 10.6846 22.4061 10.6929C22.3983 10.7013 22.3889 10.708 22.3785 10.7127C22.3681 10.7174 22.3568 10.72 22.3454 10.7203C22.2369 10.734 22.1331 10.7731 22.0424 10.8345C21.9518 10.8958 21.8769 10.9776 21.8237 11.0732C21.8156 11.0838 21.8049 11.0922 21.7926 11.0976C21.7804 11.103 21.7669 11.1051 21.7536 11.1039Z" fill="#263238"/>
<path d="M24.6405 10.7378C24.6259 10.7372 24.6118 10.7332 24.5992 10.7259C24.5866 10.7186 24.5759 10.7084 24.5681 10.6962C24.5124 10.6021 24.435 10.5228 24.3423 10.4648C24.2496 10.4068 24.1444 10.3719 24.0355 10.363C24.0122 10.363 23.9899 10.3537 23.9735 10.3373C23.957 10.3209 23.9478 10.2986 23.9478 10.2753C23.9478 10.252 23.957 10.2297 23.9735 10.2133C23.9899 10.1969 24.0122 10.1876 24.0355 10.1876C24.1732 10.1988 24.3064 10.2423 24.4241 10.3147C24.5418 10.387 24.6407 10.4862 24.7128 10.6041C24.7189 10.6136 24.723 10.6242 24.725 10.6353C24.727 10.6464 24.7267 10.6578 24.7243 10.6688C24.7218 10.6798 24.7172 10.6902 24.7108 10.6994C24.7043 10.7086 24.696 10.7165 24.6865 10.7225C24.673 10.732 24.657 10.7374 24.6405 10.7378Z" fill="#263238"/>
<path d="M21.1705 75.4177C21.0071 75.4136 20.8447 75.3915 20.6861 75.3519C20.6778 75.3499 20.6702 75.3455 20.6644 75.3393C20.6586 75.3331 20.6547 75.3253 20.6532 75.3168C20.651 75.3086 20.6515 75.2999 20.6547 75.292C20.6578 75.2841 20.6635 75.2774 20.6707 75.273C20.7343 75.2313 21.3086 74.8675 21.5168 74.9705C21.5398 74.9822 21.5594 74.9997 21.5736 75.0212C21.5878 75.0427 21.5962 75.0675 21.5979 75.0933C21.6057 75.1352 21.6025 75.1784 21.5887 75.2187C21.5749 75.259 21.5509 75.2951 21.519 75.3234C21.4175 75.3946 21.2941 75.428 21.1705 75.4177ZM20.811 75.2905C21.1245 75.3519 21.3634 75.341 21.4686 75.2577C21.4898 75.2378 21.5057 75.2129 21.5148 75.1854C21.524 75.1578 21.5262 75.1284 21.5212 75.0998C21.5212 75.0648 21.5015 75.0538 21.4905 75.0494C21.3744 74.9946 21.0434 75.159 20.811 75.2905Z" fill="#407BFF"/>
<path d="M20.697 75.3519C20.6891 75.3539 20.6808 75.3539 20.6729 75.3519C20.6663 75.3476 20.6609 75.3418 20.6571 75.3349C20.6532 75.328 20.6512 75.3203 20.651 75.3125C20.651 75.2905 20.6707 74.7601 20.8702 74.5869C20.8943 74.5643 20.9231 74.5474 20.9546 74.5376C20.9862 74.5277 21.0195 74.5251 21.0521 74.5299C21.0854 74.5303 21.1177 74.5417 21.1438 74.5623C21.17 74.5829 21.1886 74.6116 21.1968 74.6439C21.245 74.8477 20.8987 75.2511 20.7124 75.3541C20.7072 75.3548 20.7018 75.354 20.697 75.3519ZM21.0302 74.6088C20.9946 74.6091 20.9603 74.6224 20.9338 74.6461C20.8125 74.8139 20.7466 75.0155 20.7453 75.2226C20.9272 75.0779 21.1442 74.7842 21.1157 74.6527C21.1157 74.6417 21.1157 74.6176 21.0499 74.6088H21.0302Z" fill="#407BFF"/>
<path d="M33.3187 74.6044C33.3104 74.6048 33.3023 74.6026 33.2953 74.5984C33.2883 74.5941 33.2827 74.5878 33.2792 74.5803C33.2745 74.5732 33.272 74.5648 33.272 74.5562C33.272 74.5476 33.2745 74.5393 33.2792 74.5321C33.3428 74.462 33.8995 73.8504 34.156 73.8877C34.1798 73.8903 34.2025 73.8992 34.2217 73.9135C34.241 73.9277 34.2561 73.9468 34.2656 73.9688C34.2829 74.0027 34.292 74.0403 34.292 74.0784C34.292 74.1165 34.2829 74.154 34.2656 74.188C34.1407 74.4247 33.6234 74.5453 33.3252 74.5935L33.3187 74.6044ZM34.1275 73.9731C33.9807 73.9731 33.6606 74.2603 33.437 74.4948C33.8404 74.4137 34.1166 74.2888 34.1867 74.1551C34.1986 74.132 34.2048 74.1065 34.2048 74.0805C34.2048 74.0546 34.1986 74.0291 34.1867 74.006C34.1833 73.9973 34.1776 73.9897 34.1703 73.9839C34.163 73.9782 34.1543 73.9744 34.1451 73.9731H34.1275Z" fill="#407BFF"/>
<path d="M33.3187 74.6044H33.3055C33.2982 74.6024 33.2915 74.5985 33.2861 74.5932C33.2807 74.5878 33.2768 74.5811 33.2748 74.5738C33.2748 74.554 33.1411 74.074 33.2902 73.8109C33.3112 73.7731 33.3398 73.74 33.3741 73.7136C33.4084 73.6872 33.4477 73.6681 33.4896 73.6575C33.6058 73.6246 33.6584 73.6706 33.6847 73.7123C33.7899 73.8942 33.5203 74.4225 33.3472 74.5891C33.344 74.5938 33.3398 74.5976 33.3348 74.6003C33.3298 74.6029 33.3243 74.6044 33.3187 74.6044ZM33.5576 73.7276H33.5116C33.4806 73.735 33.4517 73.749 33.4267 73.7687C33.4017 73.7884 33.3813 73.8133 33.3669 73.8416C33.2943 74.0392 33.2851 74.2545 33.3406 74.4576C33.5028 74.2384 33.6716 73.8526 33.608 73.743C33.5992 73.7474 33.5883 73.7298 33.551 73.732L33.5576 73.7276Z" fill="#407BFF"/>
<path d="M18.79 21.3055C18.2398 22.4388 17.6786 23.6093 17.135 24.7623C16.8654 25.3432 16.5936 25.9219 16.3393 26.5028L15.9579 27.3796L15.7825 27.8114L15.7387 27.921L15.7058 28.0021C15.6839 28.0526 15.6685 28.1074 15.6488 28.1578C15.5128 28.5896 15.4887 29.049 15.5787 29.4927C15.6861 30.008 15.8811 30.501 16.1552 30.9504C16.4569 31.4533 16.8063 31.926 17.1986 32.3621C17.398 32.5813 17.6085 32.8136 17.8277 33.0197C17.9373 33.1249 18.0469 33.2389 18.1631 33.3331C18.2792 33.4274 18.3954 33.5523 18.4919 33.629L17.7553 34.8018C17.4386 34.6407 17.1319 34.4607 16.8369 34.2625C16.5453 34.0718 16.2604 33.8702 15.9842 33.651C15.4154 33.2003 14.9005 32.6854 14.4498 32.1166C13.9588 31.5058 13.5837 30.8105 13.3428 30.0648C13.0864 29.2425 13.0493 28.3675 13.2354 27.5265C13.2639 27.4234 13.2858 27.3073 13.3187 27.2152L13.4042 26.9434L13.5576 26.459C13.6672 26.1411 13.7768 25.8211 13.8908 25.5076C14.121 24.8785 14.3621 24.256 14.623 23.6422C15.1249 22.4191 15.6883 21.2354 16.3152 20.0363L18.79 21.3055Z" fill="#B65B52"/>
<path d="M16.7733 18.7102C15.0986 19.2341 13.4524 24.9136 13.4524 24.9136L17.3169 26.6102C17.3169 26.6102 18.5708 23.8658 19.2898 21.7154C20.0855 19.3722 18.8009 18.0745 16.7733 18.7102Z" fill="#407BFF"/>
<path opacity="0.2" d="M16.7733 18.7102C15.0986 19.2341 13.4524 24.9136 13.4524 24.9136L17.3169 26.6102C17.3169 26.6102 18.5708 23.8658 19.2898 21.7154C20.0855 19.3722 18.8009 18.0745 16.7733 18.7102Z" fill="black"/>
<path d="M18.0754 33.2739L19.6777 34.2253L18.1192 35.7772C18.1192 35.7772 16.7667 34.736 17.1701 33.9206L18.0754 33.2739Z" fill="#B55B52"/>
<path d="M20.7496 35.7444L19.1407 36.871L18.1192 35.7772L19.6777 34.2253L20.7496 35.7444Z" fill="#B55B52"/>
<path d="M98.2824 32.8619L98.206 33.9179L98.4246 33.9337L98.501 32.8777L98.2824 32.8619Z" fill="#407BFF"/>
<path d="M98.5713 28.8634L98.3496 31.9265L98.5682 31.9423L98.7899 28.8793L98.5713 28.8634Z" fill="#407BFF"/>
<path d="M92.5733 63.3221H38.8842C38.5008 63.3266 38.1206 63.2508 37.7683 63.0995C37.4159 62.9483 37.099 62.7251 36.8381 62.4441C36.5771 62.1631 36.3779 61.8307 36.2531 61.4681C36.1283 61.1055 36.0807 60.7208 36.1135 60.3388L38.9631 20.7071C39.0338 19.9046 39.3985 19.1566 39.9872 18.6067C40.5759 18.0569 41.3471 17.744 42.1525 17.7281H95.8416C96.2249 17.7234 96.605 17.7989 96.9573 17.9499C97.3097 18.1008 97.6266 18.3239 97.8876 18.6047C98.1486 18.8855 98.3479 19.2178 98.4727 19.5803C98.5975 19.9428 98.645 20.3273 98.6123 20.7093L95.7627 60.341C95.6925 61.1438 95.328 61.8924 94.7392 62.4427C94.1505 62.993 93.379 63.3062 92.5733 63.3221Z" fill="#407BFF"/>
<path d="M80.0854 77.1844H62.6566L59.5505 55.6501H76.9793L80.0854 77.1844Z" fill="#407BFF"/>
<path d="M77.3168 75.8999H58.4655L58.0907 77.1844H76.9442L77.3168 75.8999Z" fill="#407BFF"/>
<path d="M77.8977 66.0161L60.9118 65.0889L59.5505 55.6501H76.4028L77.8977 66.0161Z" fill="#263238"/>
<path d="M91.9683 63.3222H38.277C37.893 63.3265 37.5124 63.2502 37.1598 63.0983C36.8071 62.9464 36.4902 62.7223 36.2295 62.4403C35.9689 62.1584 35.7702 61.8249 35.6464 61.4614C35.5226 61.098 35.4763 60.7126 35.5107 60.3301L38.3603 20.6984C38.4329 19.8983 38.7979 19.153 39.3855 18.605C39.9731 18.0571 40.742 17.7449 41.5453 17.7282H95.2366C95.6197 17.7238 95.9996 17.7995 96.3517 17.9506C96.7038 18.1017 97.0204 18.3248 97.2811 18.6056C97.5419 18.8864 97.741 19.2186 97.8657 19.5809C97.9903 19.9432 98.0378 20.3276 98.0051 20.7094L95.1555 60.3411C95.0858 61.1437 94.7218 61.8923 94.1334 62.4426C93.545 62.993 92.7738 63.3063 91.9683 63.3222Z" fill="#263238"/>
<path d="M97.8662 21.081L96.2366 43.8152L96.4465 43.8303L98.0761 21.096L97.8662 21.081Z" fill="white"/>
<path d="M96.1027 45.7947L95.5384 53.6679L95.7483 53.683L96.3126 45.8097L96.1027 45.7947Z" fill="white"/>
<path d="M91.8455 62.5724H38.4962C38.1978 62.5757 37.902 62.5165 37.6278 62.3986C37.3536 62.2807 37.1072 62.1067 36.9042 61.8879C36.7013 61.6691 36.5464 61.4102 36.4495 61.1279C36.3525 60.8457 36.3157 60.5462 36.3414 60.2489L39.1713 20.7794C39.226 20.1535 39.5104 19.5699 39.9698 19.1413C40.4292 18.7126 41.0311 18.4693 41.6593 18.4581H95.0174C95.3156 18.4549 95.6112 18.514 95.8852 18.6318C96.1592 18.7496 96.4056 18.9233 96.6085 19.1419C96.8114 19.3605 96.9663 19.6191 97.0634 19.9011C97.1605 20.1831 97.1975 20.4823 97.1721 20.7794L94.3422 60.2533C94.2869 60.8803 94.001 61.4646 93.5398 61.893C93.0786 62.3214 92.4749 62.5635 91.8455 62.5724Z" fill="white"/>
<path opacity="0.2" d="M91.8455 62.5724H38.4962C38.1978 62.5757 37.902 62.5165 37.6278 62.3986C37.3536 62.2807 37.1072 62.1067 36.9042 61.8879C36.7013 61.6691 36.5464 61.4102 36.4495 61.1279C36.3525 60.8457 36.3157 60.5462 36.3414 60.2489L39.1713 20.7794C39.226 20.1535 39.5104 19.5699 39.9698 19.1413C40.4292 18.7126 41.0311 18.4693 41.6593 18.4581H95.0174C95.3156 18.4549 95.6112 18.514 95.8852 18.6318C96.1592 18.7496 96.4056 18.9233 96.6085 19.1419C96.8114 19.3605 96.9663 19.6191 97.0634 19.9011C97.1605 20.1831 97.1975 20.4823 97.1721 20.7794L94.3422 60.2533C94.2869 60.8803 94.001 61.4646 93.5398 61.893C93.0786 62.3214 92.4749 62.5635 91.8455 62.5724Z" fill="#407BFF"/>
<path opacity="0.5" d="M52.1832 60.8232H39.7237C39.5795 60.825 39.4365 60.7965 39.304 60.7397C39.1714 60.6828 39.0523 60.5988 38.9542 60.493C38.8561 60.3873 38.7812 60.2622 38.7344 60.1257C38.6876 59.9893 38.67 59.8446 38.6825 59.7009L41.4313 21.3406C41.4573 21.0377 41.5948 20.7553 41.8171 20.5479C42.0394 20.3406 42.3308 20.2231 42.6347 20.2183H55.0942C55.2385 20.2162 55.3816 20.2444 55.5143 20.3012C55.6471 20.3579 55.7664 20.4419 55.8645 20.5477C55.9627 20.6535 56.0375 20.7788 56.0842 20.9154C56.1308 21.052 56.1483 21.1968 56.1354 21.3406L53.3866 59.7009C53.3601 60.0036 53.2225 60.2858 53.0002 60.493C52.778 60.7002 52.487 60.8179 52.1832 60.8232Z" fill="white"/>
<path opacity="0.4" d="M51.7009 25.6194H45.252C45.1222 25.6208 44.9935 25.595 44.8742 25.5438C44.7549 25.4925 44.6477 25.4169 44.5593 25.3217C44.471 25.2266 44.4035 25.114 44.3613 24.9912C44.319 24.8685 44.3028 24.7382 44.3138 24.6089L44.384 23.6203C44.4078 23.3478 44.5315 23.0938 44.7315 22.9072C44.9314 22.7207 45.1934 22.6147 45.4668 22.6098H51.9179C52.0478 22.6084 52.1764 22.6341 52.2957 22.6854C52.415 22.7367 52.5223 22.8123 52.6106 22.9075C52.6989 23.0026 52.7664 23.1152 52.8087 23.2379C52.851 23.3607 52.8671 23.4909 52.8561 23.6203L52.7838 24.6089C52.7624 24.8822 52.6393 25.1377 52.4389 25.3247C52.2384 25.5118 51.9751 25.6169 51.7009 25.6194Z" fill="#407BFF"/>
<path d="M47.5997 41.1389H37.7553C37.5295 41.1418 37.3055 41.0975 37.0978 41.0088C36.8901 40.9201 36.7032 40.7891 36.549 40.624C36.3949 40.4589 36.2769 40.2634 36.2027 40.0501C36.1284 39.8368 36.0995 39.6104 36.1179 39.3853L36.8259 29.53C36.8696 29.0563 37.0865 28.6153 37.4352 28.2917C37.7839 27.9681 38.2398 27.7846 38.7154 27.7764H48.5619C48.7876 27.7738 49.0113 27.8183 49.2188 27.9071C49.4262 27.9959 49.6129 28.127 49.7668 28.2921C49.9207 28.4571 50.0385 28.6525 50.1126 28.8656C50.1867 29.0788 50.2155 29.305 50.1972 29.53L49.4914 39.3765C49.4502 39.8523 49.2339 40.296 48.8845 40.6215C48.535 40.9471 48.0772 41.1314 47.5997 41.1389Z" fill="#407BFF"/>
<path d="M49.0113 33.0723C48.8295 33.0759 48.6555 33.1467 48.5228 33.2709C48.3901 33.3951 48.308 33.5641 48.2923 33.7452L48.1893 35.1744C48.1819 35.2604 48.1927 35.3471 48.2209 35.4287C48.249 35.5104 48.294 35.5852 48.3529 35.6484C48.4117 35.7116 48.4832 35.7617 48.5626 35.7956C48.642 35.8295 48.7277 35.8464 48.814 35.8452H49.8136C49.8587 35.8447 49.902 35.8274 49.9349 35.7965C49.9678 35.7656 49.9878 35.7235 49.9911 35.6786L50.1665 33.2389C50.1684 33.2174 50.1657 33.1959 50.1587 33.1756C50.1516 33.1552 50.1404 33.1366 50.1258 33.1209C50.1111 33.1052 50.0933 33.0928 50.0735 33.0844C50.0537 33.076 50.0324 33.0719 50.0109 33.0723H49.0113Z" fill="white"/>
<path d="M45.2125 30.273H39.0179C38.9833 30.2735 38.9489 30.2667 38.9171 30.253C38.8852 30.2393 38.8566 30.2192 38.8331 30.1937C38.8095 30.1683 38.7916 30.1383 38.7804 30.1055C38.7692 30.0727 38.7649 30.0379 38.768 30.0034C38.774 29.9305 38.807 29.8625 38.8605 29.8126C38.914 29.7628 38.9842 29.7347 39.0574 29.7338H45.263C45.2976 29.7334 45.332 29.7402 45.3638 29.7539C45.3956 29.7675 45.4243 29.7877 45.4478 29.8131C45.4714 29.8385 45.4893 29.8686 45.5005 29.9014C45.5117 29.9342 45.5159 29.9689 45.5129 30.0034C45.5062 30.078 45.4715 30.1473 45.4158 30.1974C45.3601 30.2474 45.2874 30.2745 45.2125 30.273Z" fill="white"/>
<path d="M45.1161 31.6431H38.9083C38.8737 31.6435 38.8393 31.6367 38.8075 31.623C38.7756 31.6094 38.747 31.5892 38.7235 31.5638C38.6999 31.5383 38.682 31.5083 38.6708 31.4755C38.6596 31.4427 38.6553 31.408 38.6584 31.3734C38.6649 31.3009 38.6981 31.2334 38.7516 31.184C38.8051 31.1346 38.875 31.1068 38.9478 31.106H45.1556C45.1901 31.1053 45.2244 31.1118 45.2562 31.1252C45.2881 31.1386 45.3167 31.1586 45.3403 31.1838C45.3639 31.2091 45.3819 31.239 45.3931 31.2717C45.4043 31.3044 45.4085 31.339 45.4054 31.3734C45.3994 31.4463 45.3665 31.5144 45.313 31.5642C45.2594 31.6141 45.1892 31.6422 45.1161 31.6431Z" fill="white"/>
<path d="M42.8715 33.0153H38.8097C38.7751 33.0154 38.7409 33.0083 38.7093 32.9946C38.6776 32.9808 38.6491 32.9606 38.6256 32.9352C38.6021 32.9099 38.5842 32.88 38.5728 32.8473C38.5615 32.8147 38.5571 32.7801 38.5598 32.7457C38.5658 32.6728 38.5988 32.6047 38.6523 32.5548C38.7058 32.505 38.776 32.4769 38.8491 32.476H42.9109C42.9456 32.4756 42.9799 32.4824 43.0118 32.4961C43.0436 32.5097 43.0722 32.5299 43.0958 32.5553C43.1193 32.5807 43.1373 32.6108 43.1485 32.6436C43.1597 32.6764 43.1639 32.7111 43.1608 32.7457C43.1543 32.8184 43.1212 32.8861 43.0678 32.9359C43.0144 32.9857 42.9445 33.0139 42.8715 33.0153Z" fill="white"/>
<path opacity="0.5" d="M45.2301 39.5475H39.2371C39.0889 39.5493 38.9421 39.52 38.8059 39.4616C38.6697 39.4031 38.5473 39.3168 38.4466 39.2082C38.3458 39.0996 38.2689 38.9711 38.2208 38.8309C38.1727 38.6908 38.1545 38.5421 38.1674 38.3945L38.3866 35.2402C38.4132 34.9295 38.5541 34.6399 38.7821 34.4272C39.0102 34.2146 39.309 34.0942 39.6207 34.0894H45.6246C45.7726 34.0876 45.9193 34.1168 46.0553 34.1751C46.1913 34.2334 46.3136 34.3195 46.4143 34.4279C46.515 34.5363 46.592 34.6645 46.6402 34.8044C46.6885 34.9443 46.7069 35.0927 46.6943 35.2402L46.4751 38.3945C46.4479 38.707 46.3054 38.9982 46.0752 39.2113C45.845 39.4245 45.5438 39.5443 45.2301 39.5475Z" fill="white"/>
<path opacity="0.4" d="M50.8351 44.8259H43.3647C43.3004 44.8267 43.2366 44.8141 43.1775 44.7888C43.1184 44.7635 43.0653 44.7261 43.0215 44.679C42.9777 44.632 42.9443 44.5762 42.9233 44.5154C42.9024 44.4546 42.8945 44.3901 42.9 44.3261C42.9119 44.1911 42.9733 44.0654 43.0725 43.9731C43.1717 43.8808 43.3015 43.8285 43.437 43.8263H50.9074C50.9715 43.8258 51.035 43.8386 51.0939 43.864C51.1527 43.8895 51.2056 43.9269 51.2491 43.974C51.2927 44.021 51.3259 44.0766 51.3467 44.1373C51.3675 44.1979 51.3754 44.2622 51.3699 44.3261C51.3585 44.4609 51.2975 44.5866 51.1987 44.6789C51.0999 44.7713 50.9703 44.8236 50.8351 44.8259Z" fill="#407BFF"/>
<path opacity="0.8" d="M49.3204 46.7877H44.59C44.5257 46.7886 44.462 46.7759 44.4029 46.7507C44.3438 46.7254 44.2906 46.688 44.2468 46.6409C44.203 46.5938 44.1696 46.5381 44.1487 46.4773C44.1277 46.4165 44.1198 46.352 44.1253 46.2879C44.1367 46.1532 44.1977 46.0274 44.2965 45.9351C44.3953 45.8428 44.5249 45.7904 44.6602 45.7882H49.4015C49.4657 45.7873 49.5294 45.7999 49.5884 45.8252C49.6474 45.8505 49.7004 45.888 49.744 45.9351C49.7876 45.9822 49.8208 46.038 49.8415 46.0988C49.8622 46.1595 49.8698 46.224 49.864 46.2879C49.8525 46.4242 49.7902 46.5512 49.6895 46.6437C49.5889 46.7363 49.4571 46.7877 49.3204 46.7877Z" fill="white"/>
<path opacity="0.4" d="M50.4471 50.2379H42.9767C42.9125 50.2385 42.8489 50.2256 42.79 50.2002C42.731 50.1748 42.678 50.1374 42.6343 50.0904C42.5906 50.0434 42.5571 49.9878 42.5361 49.9272C42.515 49.8665 42.5068 49.8022 42.512 49.7382C42.5239 49.6032 42.5854 49.4775 42.6845 49.3852C42.7837 49.2929 42.9136 49.2406 43.049 49.2384H50.5194C50.5835 49.2378 50.647 49.2507 50.7059 49.2761C50.7647 49.3015 50.8176 49.339 50.8612 49.386C50.9047 49.4331 50.9379 49.4887 50.9587 49.5494C50.9795 49.61 50.9874 49.6743 50.9819 49.7382C50.9705 49.8729 50.9095 49.9987 50.8107 50.091C50.7119 50.1834 50.5823 50.2357 50.4471 50.2379Z" fill="#407BFF"/>
<path opacity="0.8" d="M48.9412 52.1976H44.202C44.1378 52.1988 44.0741 52.1864 44.015 52.1614C43.9559 52.1364 43.9027 52.0992 43.8589 52.0523C43.8151 52.0054 43.7816 51.9498 43.7607 51.8891C43.7397 51.8284 43.7318 51.764 43.7373 51.7C43.7488 51.5642 43.8108 51.4375 43.911 51.345C44.0112 51.2525 44.1424 51.2009 44.2787 51.2003H49.0135C49.0778 51.1994 49.1415 51.212 49.2007 51.2373C49.2598 51.2626 49.3129 51.3 49.3567 51.3471C49.4005 51.3942 49.4339 51.4499 49.4548 51.5107C49.4758 51.5715 49.4837 51.636 49.4782 51.7C49.4663 51.8348 49.4047 51.9603 49.3055 52.0522C49.2063 52.1442 49.0764 52.196 48.9412 52.1976Z" fill="white"/>
<path opacity="0.4" d="M50.0591 55.6501H42.5887C42.5245 55.6506 42.4609 55.6377 42.402 55.6123C42.343 55.5869 42.29 55.5495 42.2463 55.5025C42.2026 55.4555 42.1691 55.3999 42.1481 55.3393C42.127 55.2786 42.1188 55.2143 42.124 55.1503C42.1354 55.0151 42.1967 54.8891 42.296 54.7967C42.3953 54.7043 42.5254 54.6522 42.661 54.6505H50.1314C50.1956 54.6496 50.2593 54.6622 50.3183 54.6875C50.3773 54.7129 50.4303 54.7503 50.474 54.7974C50.5176 54.8445 50.5508 54.9003 50.5715 54.9611C50.5921 55.0219 50.5998 55.0863 50.5939 55.1503C50.5826 55.285 50.5215 55.4108 50.4227 55.5031C50.3239 55.5955 50.1943 55.6478 50.0591 55.6501Z" fill="#407BFF"/>
<path opacity="0.8" d="M48.5532 57.6097H43.814C43.7498 57.6106 43.686 57.5979 43.6269 57.5726C43.5678 57.5474 43.5146 57.51 43.4708 57.4629C43.4271 57.4158 43.3936 57.3601 43.3727 57.2993C43.3518 57.2385 43.3438 57.174 43.3493 57.1099C43.3612 56.9753 43.4224 56.8499 43.5211 56.7576C43.6198 56.6654 43.7491 56.6129 43.8842 56.6102H48.6255C48.6897 56.6096 48.7533 56.6225 48.8123 56.6479C48.8712 56.6733 48.9242 56.7107 48.9679 56.7577C49.0116 56.8047 49.0451 56.8603 49.0661 56.9209C49.0872 56.9816 49.0954 57.0459 49.0902 57.1099C49.0788 57.2451 49.0175 57.3711 48.9182 57.4635C48.8189 57.5559 48.6888 57.608 48.5532 57.6097Z" fill="white"/>
<path opacity="0.5" d="M92.433 49.5716C92.7574 49.0762 93.5005 49.2844 93.4588 49.8565L92.7399 59.8872C92.7026 60.4023 92.3124 60.8232 91.8631 60.8232H55.7364C55.298 60.8232 54.9648 60.4023 55.0021 59.8872L55.4405 53.9271C55.4551 53.7376 55.5114 53.5536 55.6054 53.3884C55.6993 53.2231 55.8286 53.0806 55.9839 52.9711C56.1393 52.8616 56.317 52.7878 56.5042 52.7548C56.6914 52.7219 56.8836 52.7307 57.067 52.7807C59.1034 53.4142 60.8482 53.0415 62.4703 52.2371C65.9381 50.5163 68.8403 46.8206 72.8276 46.8206C72.981 46.8206 73.1323 46.8206 73.2791 46.8337C79.2107 47.191 81.017 54.5606 85.6114 54.5606C86.9705 54.5606 88.209 53.9731 89.2896 53.138C90.6005 52.1143 91.6811 50.718 92.433 49.5716Z" fill="#407BFF"/>
<path opacity="0.5" d="M93.1827 53.7035L92.7443 59.8872C92.707 60.4023 92.3168 60.8232 91.8674 60.8232H55.7364C55.298 60.8232 54.9648 60.4023 55.0021 59.8872L55.8789 47.5988C55.9381 46.757 57.0407 46.4019 57.4878 47.0836C58.6408 48.8373 60.4142 51.1148 62.455 52.2371C63.1967 52.67 64.0361 52.9075 64.8947 52.9276C67.8144 52.9276 70.298 49.4664 73.2638 46.8337C75.081 45.2204 77.0801 43.9184 79.4716 43.9184C84.4628 43.9184 85.1993 52.0288 89.2743 53.138C90.059 53.3572 90.9687 53.3068 92.056 52.8903C92.1845 52.8347 92.3253 52.8135 92.4646 52.8287C92.6038 52.8438 92.7367 52.8949 92.8503 52.9769C92.9639 53.0589 93.0542 53.1689 93.1125 53.2963C93.1707 53.4237 93.1949 53.564 93.1827 53.7035Z" fill="#407BFF"/>
<g opacity="0.8">
<path d="M93.3602 51.3055C93.3406 51.3048 93.3219 51.297 93.3076 51.2835C93.3005 51.2769 93.2952 51.2686 93.2923 51.2594C93.2902 51.25 93.2902 51.2403 93.2923 51.2309C93.2922 51.2211 93.294 51.2114 93.2978 51.2024C93.3016 51.1933 93.3071 51.1852 93.3142 51.1783C93.3281 51.1644 93.3471 51.1566 93.3668 51.1566C93.3865 51.1566 93.4054 51.1644 93.4194 51.1783C93.4266 51.185 93.4323 51.1931 93.4361 51.2022C93.4399 51.2113 93.4417 51.2211 93.4413 51.2309C93.4424 51.2404 93.4424 51.25 93.4413 51.2594C93.4367 51.2683 93.4308 51.2765 93.4238 51.2835C93.4155 51.2918 93.4055 51.298 93.3945 51.3018C93.3835 51.3056 93.3718 51.3069 93.3602 51.3055Z" fill="white"/>
<path d="M58.2288 56.4414C58.209 56.4414 58.19 56.4335 58.1761 56.4195C58.1621 56.4056 58.1542 56.3866 58.1542 56.3668C58.1548 56.3475 58.1629 56.3291 58.1768 56.3156C58.1907 56.302 58.2094 56.2945 58.2288 56.2945C58.2485 56.2945 58.2675 56.3024 58.2814 56.3163C58.2954 56.3303 58.3033 56.3493 58.3033 56.369C58.3033 56.389 58.2955 56.4082 58.2816 56.4225C58.2677 56.4369 58.2487 56.4452 58.2288 56.4458V56.4414ZM57.4769 56.3997C57.467 56.3992 57.4573 56.3966 57.4484 56.3922C57.4395 56.3878 57.4316 56.3816 57.4253 56.3739C57.4189 56.3663 57.4142 56.3575 57.4114 56.348C57.4085 56.3385 57.4077 56.3285 57.4089 56.3186C57.41 56.3088 57.413 56.2993 57.4178 56.2907C57.4226 56.282 57.4291 56.2744 57.4368 56.2683C57.4446 56.2622 57.4535 56.2577 57.463 56.255C57.4725 56.2524 57.4824 56.2516 57.4922 56.2529C57.5116 56.2551 57.5294 56.2648 57.5417 56.28C57.554 56.2951 57.5598 56.3145 57.558 56.334C57.5559 56.3524 57.5472 56.3694 57.5335 56.3819C57.5198 56.3944 57.502 56.4015 57.4835 56.4019L57.4769 56.3997ZM58.8951 56.334C58.8939 56.3242 58.8946 56.3142 58.8973 56.3047C58.8999 56.2952 58.9045 56.2863 58.9106 56.2786C58.9167 56.2708 58.9243 56.2644 58.9329 56.2596C58.9416 56.2548 58.9511 56.2518 58.9609 56.2507C58.9707 56.2494 58.9806 56.2502 58.9901 56.2528C58.9996 56.2555 59.0085 56.26 59.0163 56.2661C59.024 56.2722 59.0305 56.2798 59.0353 56.2885C59.0401 56.2971 59.0431 56.3066 59.0442 56.3164C59.0454 56.3262 59.0447 56.3362 59.042 56.3457C59.0394 56.3552 59.0348 56.3641 59.0287 56.3718C59.0226 56.3796 59.015 56.386 59.0064 56.3908C58.9977 56.3956 58.9882 56.3986 58.9784 56.3997C58.9686 56.401 58.9587 56.4002 58.9492 56.3976C58.9397 56.3949 58.9308 56.3904 58.923 56.3843C58.9153 56.3781 58.9088 56.3705 58.904 56.3619C58.8992 56.3533 58.8962 56.3438 58.8951 56.334ZM56.736 56.2857C56.7166 56.281 56.6997 56.2691 56.6887 56.2525C56.6777 56.2358 56.6735 56.2156 56.6768 56.1959C56.6815 56.1765 56.6934 56.1596 56.7101 56.1486C56.7268 56.1376 56.747 56.1333 56.7667 56.1367C56.7861 56.1414 56.803 56.1533 56.814 56.17C56.8249 56.1866 56.8292 56.2069 56.8259 56.2266C56.8219 56.2434 56.8124 56.2584 56.7989 56.2691C56.7853 56.2798 56.7686 56.2857 56.7513 56.2857H56.736ZM59.6273 56.2112C59.6246 56.2016 59.624 56.1915 59.6253 56.1816C59.6267 56.1717 59.63 56.1622 59.6351 56.1536C59.6403 56.145 59.647 56.1375 59.6551 56.1316C59.6632 56.1257 59.6723 56.1214 59.6821 56.1192C59.7012 56.1151 59.7212 56.1185 59.7379 56.1287C59.7546 56.1389 59.7668 56.1551 59.7719 56.174C59.7766 56.1934 59.7735 56.2139 59.7633 56.2311C59.753 56.2483 59.7365 56.2608 59.7171 56.266H59.6996C59.6824 56.2676 59.6651 56.2629 59.6511 56.2528C59.637 56.2428 59.627 56.228 59.6229 56.2112H59.6273ZM83.6013 56.2419C83.5816 56.2419 83.5626 56.234 83.5486 56.2201C83.5347 56.2061 83.5268 56.1871 83.5268 56.1674C83.5268 56.1476 83.5347 56.1287 83.5486 56.1147C83.5626 56.1007 83.5816 56.0928 83.6013 56.0928C83.6211 56.0928 83.6401 56.1007 83.654 56.1147C83.668 56.1287 83.6759 56.1476 83.6759 56.1674C83.6759 56.1871 83.668 56.2061 83.654 56.2201C83.6401 56.234 83.6211 56.2419 83.6013 56.2419ZM84.2699 56.1367C84.2687 56.127 84.2694 56.1172 84.2721 56.1078C84.2748 56.0984 84.2794 56.0897 84.2855 56.0821C84.2916 56.0745 84.2993 56.0683 84.3079 56.0637C84.3165 56.0592 84.3259 56.0564 84.3357 56.0556C84.3455 56.054 84.3556 56.0546 84.3652 56.0571C84.3748 56.0596 84.3839 56.0641 84.3917 56.0703C84.3995 56.0764 84.406 56.0842 84.4107 56.093C84.4154 56.1017 84.4182 56.1114 84.419 56.1213C84.4208 56.1414 84.4147 56.1613 84.402 56.1769C84.3893 56.1925 84.371 56.2024 84.351 56.2046C84.3314 56.2059 84.312 56.1995 84.2969 56.1869C84.2818 56.1742 84.2721 56.1563 84.2699 56.1367ZM82.8517 56.1959C82.8419 56.1948 82.8325 56.1918 82.824 56.187C82.8154 56.1821 82.808 56.1756 82.802 56.1678C82.7961 56.1601 82.7918 56.1511 82.7894 56.1416C82.787 56.1321 82.7866 56.1222 82.7881 56.1126C82.7892 56.1028 82.7922 56.0933 82.797 56.0846C82.8018 56.076 82.8083 56.0684 82.816 56.0623C82.8238 56.0562 82.8326 56.0516 82.8422 56.049C82.8517 56.0463 82.8616 56.0456 82.8714 56.0468C82.891 56.0495 82.9088 56.0597 82.921 56.0753C82.9333 56.0908 82.939 56.1104 82.9372 56.1301C82.935 56.1485 82.9263 56.1656 82.9126 56.1781C82.8989 56.1905 82.8812 56.1977 82.8626 56.1981L82.8517 56.1959ZM56.0082 56.106C55.9987 56.1035 55.9898 56.0991 55.982 56.093C55.9741 56.087 55.9676 56.0795 55.9627 56.071C55.9578 56.0624 55.9547 56.0529 55.9534 56.0432C55.9522 56.0334 55.953 56.0234 55.9556 56.0139C55.9617 55.9948 55.9748 55.9788 55.9924 55.969C56.0099 55.9592 56.0304 55.9565 56.0499 55.9613C56.0689 55.9674 56.0848 55.9806 56.0942 55.9982C56.1036 56.0158 56.1058 56.0364 56.1003 56.0556C56.0959 56.0712 56.0864 56.0849 56.0732 56.0944C56.0601 56.1039 56.0442 56.1088 56.028 56.1082H56.0082V56.106ZM85.0064 56.0337C85.0042 56.024 85.004 56.014 85.0058 56.0042C85.0076 55.9945 85.0114 55.9852 85.017 55.977C85.0225 55.9687 85.0297 55.9617 85.0381 55.9564C85.0464 55.9511 85.0558 55.9475 85.0656 55.946C85.0753 55.9441 85.0852 55.9441 85.0948 55.946C85.1045 55.948 85.1136 55.9518 85.1218 55.9573C85.1299 55.9628 85.1369 55.9699 85.1423 55.9781C85.1477 55.9863 85.1515 55.9955 85.1533 56.0052C85.1552 56.0148 85.1552 56.0247 85.1532 56.0344C85.1513 56.044 85.1475 56.0532 85.142 56.0613C85.1365 56.0695 85.1294 56.0765 85.1212 56.0819C85.113 56.0873 85.1038 56.091 85.0941 56.0928H85.081C85.0637 56.0928 85.0469 56.0869 85.0334 56.0762C85.0199 56.0655 85.0104 56.0505 85.0064 56.0337ZM82.1152 56.06C82.1053 56.0582 82.096 56.0544 82.0878 56.0488C82.0796 56.0432 82.0726 56.0359 82.0675 56.0274C82.0623 56.0189 82.059 56.0094 82.0577 55.9995C82.0565 55.9896 82.0574 55.9796 82.0604 55.9701C82.065 55.9509 82.0771 55.9344 82.094 55.9241C82.1108 55.9138 82.131 55.9107 82.1502 55.9153C82.1694 55.92 82.1859 55.932 82.1962 55.9489C82.2065 55.9657 82.2097 55.986 82.205 56.0052C82.2011 56.0214 82.1918 56.0358 82.1787 56.0462C82.1656 56.0565 82.1494 56.0621 82.1327 56.0622H82.1152V56.06ZM60.3375 55.9986C60.3336 55.9894 60.3317 55.9795 60.3319 55.9696C60.3321 55.9597 60.3343 55.9499 60.3384 55.9408C60.3425 55.9318 60.3484 55.9237 60.3558 55.917C60.3632 55.9103 60.3719 55.9053 60.3813 55.9021C60.3996 55.8949 60.4201 55.8953 60.4381 55.9031C60.4562 55.9109 60.4704 55.9255 60.4778 55.9438C60.4813 55.953 60.4829 55.9628 60.4826 55.9727C60.4823 55.9825 60.48 55.9922 60.476 56.0012C60.4719 56.0101 60.4661 56.0182 60.4589 56.0249C60.4516 56.0316 60.4432 56.0368 60.4339 56.0402C60.4253 56.0422 60.4163 56.0422 60.4076 56.0402C60.3932 56.0406 60.3789 56.0369 60.3665 56.0295C60.3541 56.0221 60.3441 56.0114 60.3375 55.9986ZM85.732 55.8693C85.729 55.8596 85.728 55.8495 85.729 55.8394C85.7301 55.8294 85.7332 55.8197 85.7381 55.8109C85.743 55.802 85.7497 55.7943 85.7577 55.7882C85.7657 55.782 85.7748 55.7775 85.7846 55.775C85.7941 55.7724 85.804 55.7716 85.8138 55.7728C85.8236 55.774 85.8331 55.7772 85.8416 55.7821C85.8502 55.787 85.8577 55.7935 85.8637 55.8013C85.8697 55.8091 85.8741 55.8181 85.8767 55.8276C85.8793 55.8371 85.8801 55.847 85.8788 55.8568C85.8776 55.8666 85.8745 55.8761 85.8696 55.8846C85.8647 55.8932 85.8581 55.9007 85.8503 55.9067C85.8425 55.9127 85.8336 55.9171 85.824 55.9197H85.8043C85.7885 55.9201 85.7729 55.9154 85.7599 55.9063C85.7469 55.8972 85.7371 55.8843 85.732 55.8693ZM81.3962 55.843C81.3776 55.8365 81.3624 55.8229 81.3538 55.8053C81.3451 55.7876 81.3438 55.7673 81.3501 55.7487C81.3571 55.73 81.371 55.7147 81.389 55.7061C81.407 55.6975 81.4277 55.6963 81.4466 55.7027C81.4653 55.7096 81.4806 55.7236 81.4892 55.7416C81.4978 55.7596 81.499 55.7802 81.4926 55.7991C81.4869 55.8135 81.4769 55.8259 81.4639 55.8345C81.451 55.8431 81.4358 55.8476 81.4203 55.8473C81.412 55.8482 81.4036 55.8467 81.3962 55.843ZM61.0104 55.7027C61.0059 55.6939 61.0032 55.6843 61.0024 55.6745C61.0016 55.6647 61.0027 55.6548 61.0058 55.6454C61.0089 55.636 61.0137 55.6273 61.0202 55.6198C61.0266 55.6124 61.0345 55.6062 61.0433 55.6018C61.0614 55.5934 61.082 55.5924 61.1008 55.599C61.1196 55.6055 61.1352 55.6191 61.1441 55.6369C61.1486 55.6455 61.1513 55.6549 61.1521 55.6646C61.1529 55.6743 61.1517 55.684 61.1486 55.6932C61.1455 55.7024 61.1406 55.7109 61.1342 55.7182C61.1278 55.7254 61.12 55.7314 61.1113 55.7355C61.0998 55.7388 61.0876 55.7388 61.0762 55.7355C61.0648 55.7348 61.0537 55.7314 61.0439 55.7257C61.034 55.72 61.0255 55.7121 61.0192 55.7027H61.0104ZM86.4378 55.6501C86.4343 55.641 86.4327 55.6313 86.4331 55.6217C86.4334 55.612 86.4357 55.6024 86.4398 55.5936C86.4439 55.5848 86.4497 55.577 86.4569 55.5705C86.4641 55.564 86.4725 55.559 86.4817 55.5558C86.5003 55.5501 86.5204 55.5516 86.5379 55.5602C86.5554 55.5687 86.569 55.5836 86.5759 55.6018C86.5823 55.6207 86.581 55.6414 86.5725 55.6594C86.5639 55.6774 86.5486 55.6913 86.5299 55.6983H86.5058C86.4921 55.6967 86.4791 55.6914 86.4683 55.6828C86.4574 55.6743 86.4492 55.663 86.4444 55.6501H86.4378ZM80.6969 55.558C80.688 55.554 80.68 55.5482 80.6732 55.5411C80.6665 55.5339 80.6613 55.5256 80.6578 55.5164C80.6544 55.5072 80.6528 55.4975 80.6531 55.4877C80.6534 55.4779 80.6556 55.4683 80.6597 55.4594C80.6682 55.4417 80.6832 55.428 80.7016 55.4211C80.7199 55.4142 80.7402 55.4145 80.7583 55.4221C80.7675 55.4261 80.7758 55.4319 80.7827 55.4392C80.7896 55.4465 80.7949 55.4551 80.7984 55.4646C80.8019 55.474 80.8034 55.484 80.8029 55.494C80.8025 55.5041 80.7999 55.5139 80.7956 55.5229C80.7894 55.5358 80.7798 55.5468 80.7678 55.5545C80.7558 55.5623 80.7419 55.5665 80.7276 55.5668C80.719 55.566 80.7106 55.5629 80.7035 55.558H80.6969ZM87.1327 55.387C87.1288 55.378 87.1268 55.3682 87.1268 55.3584C87.1268 55.3486 87.1289 55.3389 87.1328 55.3298C87.1367 55.3208 87.1424 55.3127 87.1495 55.3059C87.1566 55.2992 87.1651 55.2939 87.1743 55.2906C87.1832 55.2863 87.1928 55.2839 87.2026 55.2836C87.2125 55.2833 87.2222 55.2851 87.2313 55.2888C87.2404 55.2926 87.2486 55.2981 87.2554 55.3052C87.2622 55.3123 87.2675 55.3208 87.2708 55.33C87.2747 55.3391 87.2769 55.3488 87.277 55.3587C87.2772 55.3686 87.2754 55.3784 87.2717 55.3876C87.268 55.3968 87.2626 55.4051 87.2556 55.4122C87.2487 55.4192 87.2404 55.4248 87.2313 55.4287C87.2219 55.4307 87.2122 55.4307 87.2028 55.4287C87.1895 55.4278 87.1767 55.4236 87.1655 55.4163C87.1544 55.409 87.1453 55.3989 87.1393 55.387H87.1327ZM61.6614 55.3432C61.6508 55.326 61.6474 55.3053 61.6519 55.2856C61.6564 55.2659 61.6685 55.2488 61.6856 55.238C61.6939 55.2327 61.7032 55.2292 61.7129 55.2276C61.7226 55.226 61.7325 55.2263 61.7421 55.2286C61.7517 55.2308 61.7607 55.2349 61.7687 55.2407C61.7767 55.2464 61.7834 55.2537 61.7886 55.2621C61.7938 55.2704 61.7973 55.2797 61.7989 55.2894C61.8005 55.2991 61.8002 55.309 61.798 55.3186C61.7957 55.3282 61.7916 55.3372 61.7859 55.3452C61.7801 55.3532 61.7728 55.3599 61.7645 55.3651C61.7531 55.3736 61.7392 55.3782 61.725 55.3782C61.7135 55.3769 61.7025 55.3731 61.6926 55.3671C61.6828 55.361 61.6744 55.3528 61.668 55.3432H61.6614ZM80.0284 55.2226C80.0108 55.2129 79.9977 55.1966 79.992 55.1774C79.9862 55.1581 79.9883 55.1374 79.9977 55.1196C80.0078 55.1024 80.0242 55.0898 80.0434 55.0844C80.0626 55.0791 80.0832 55.0815 80.1007 55.0911C80.1178 55.1008 80.1303 55.1168 80.1357 55.1357C80.141 55.1545 80.1387 55.1748 80.1292 55.1919C80.1227 55.2037 80.1131 55.2135 80.1016 55.2205C80.0901 55.2274 80.0769 55.2312 80.0634 55.2314C80.0536 55.2299 80.044 55.2269 80.0349 55.2226H80.0284ZM87.8144 55.0867C87.8061 55.069 87.8051 55.0487 87.8117 55.0302C87.8183 55.0117 87.8318 54.9966 87.8495 54.9881C87.8675 54.9797 87.8882 54.9786 87.907 54.9852C87.9258 54.9917 87.9413 55.0053 87.9503 55.0231C87.9543 55.0321 87.9566 55.0417 87.9569 55.0515C87.9572 55.0613 87.9556 55.071 87.9521 55.0802C87.9487 55.0893 87.9434 55.0977 87.9367 55.1049C87.93 55.112 87.922 55.1178 87.913 55.1218H87.8802C87.8682 55.1211 87.8566 55.1176 87.8463 55.1115C87.836 55.1054 87.8273 55.0969 87.821 55.0867H87.8144ZM62.2796 54.9311C62.2683 54.9147 62.2638 54.8946 62.2671 54.8749C62.2704 54.8553 62.2811 54.8377 62.2971 54.8259C62.3133 54.8143 62.3332 54.8095 62.3528 54.8124C62.3724 54.8152 62.3902 54.8255 62.4023 54.8412C62.4136 54.8576 62.4181 54.8777 62.4149 54.8974C62.4116 54.917 62.4008 54.9346 62.3848 54.9464C62.372 54.9557 62.3568 54.961 62.341 54.9618C62.3302 54.9608 62.3197 54.9576 62.3103 54.9523C62.3008 54.947 62.2926 54.9398 62.2862 54.9311H62.2796ZM79.3773 54.8478C79.369 54.8428 79.3618 54.8363 79.3561 54.8285C79.3503 54.8207 79.3462 54.8118 79.344 54.8025C79.3417 54.7931 79.3414 54.7833 79.343 54.7738C79.3446 54.7642 79.3481 54.7551 79.3532 54.7469C79.3577 54.7382 79.364 54.7306 79.3717 54.7244C79.3794 54.7183 79.3883 54.7138 79.3978 54.7114C79.4073 54.7089 79.4172 54.7084 79.4269 54.71C79.4366 54.7116 79.4458 54.7152 79.454 54.7206C79.4626 54.7256 79.4701 54.7322 79.4761 54.7401C79.482 54.748 79.4864 54.7571 79.4888 54.7666C79.4913 54.7762 79.4918 54.7862 79.4903 54.796C79.4889 54.8058 79.4855 54.8152 79.4804 54.8237C79.4737 54.8347 79.4644 54.8439 79.4533 54.8504C79.4422 54.8569 79.4297 54.8606 79.4168 54.8609C79.4065 54.8584 79.3968 54.854 79.3883 54.8478H79.3773ZM88.4764 54.7535C88.4671 54.7361 88.4651 54.7157 88.4709 54.6967C88.4766 54.6778 88.4896 54.662 88.5071 54.6527C88.5246 54.644 88.5448 54.6423 88.5636 54.648C88.5823 54.6537 88.5982 54.6663 88.6079 54.6834C88.6173 54.7011 88.6194 54.7219 88.6136 54.7412C88.6079 54.7604 88.5948 54.7767 88.5772 54.7864C88.5656 54.7884 88.5538 54.7884 88.5421 54.7864C88.5311 54.7853 88.5205 54.7818 88.511 54.7761C88.5016 54.7704 88.4935 54.7627 88.4873 54.7535H88.4764ZM62.8714 54.4817C62.8652 54.4741 62.8606 54.4653 62.8577 54.4559C62.8549 54.4465 62.854 54.4366 62.855 54.4268C62.856 54.417 62.859 54.4076 62.8637 54.3989C62.8684 54.3903 62.8747 54.3827 62.8824 54.3765C62.898 54.3645 62.9176 54.3589 62.9372 54.3609C62.9568 54.363 62.9748 54.3725 62.9876 54.3875C63.0012 54.4021 63.0087 54.4212 63.0087 54.4412C63.0087 54.4611 63.0012 54.4803 62.9876 54.4949C62.9737 54.5051 62.9567 54.5105 62.9394 54.5102C62.9283 54.5107 62.9172 54.5083 62.9072 54.5033C62.8972 54.4983 62.8887 54.4909 62.8824 54.4817H62.8714ZM78.746 54.4488C78.7295 54.4381 78.7179 54.4212 78.7137 54.4019C78.7096 54.3825 78.7134 54.3624 78.7241 54.3458C78.7353 54.3291 78.7526 54.3174 78.7722 54.3133C78.7919 54.3092 78.8124 54.313 78.8293 54.3239C78.8454 54.335 78.8567 54.3519 78.8608 54.371C78.8648 54.3902 78.8614 54.4102 78.8512 54.4269C78.8445 54.4377 78.8351 54.4466 78.824 54.4527C78.8129 54.4588 78.8004 54.462 78.7877 54.462C78.7767 54.4596 78.7663 54.4551 78.757 54.4488H78.746ZM89.1274 54.394C89.1223 54.3856 89.1189 54.3762 89.1175 54.3664C89.116 54.3566 89.1165 54.3466 89.119 54.337C89.1214 54.3274 89.1257 54.3184 89.1317 54.3105C89.1377 54.3026 89.1452 54.296 89.1537 54.291C89.171 54.2812 89.1913 54.2785 89.2105 54.2834C89.2297 54.2883 89.2463 54.3005 89.2567 54.3173C89.2665 54.3346 89.2692 54.3549 89.2643 54.3741C89.2594 54.3933 89.2473 54.4099 89.2304 54.4203C89.2183 54.427 89.2048 54.4307 89.191 54.4313C89.18 54.4294 89.1696 54.4251 89.1604 54.4186C89.1513 54.4122 89.1438 54.4038 89.1384 54.394H89.1274ZM78.1257 54.0345C78.1093 54.023 78.0981 54.0056 78.0944 53.9859C78.0908 53.9663 78.0949 53.946 78.106 53.9293C78.1178 53.9134 78.1352 53.9025 78.1547 53.8989C78.1742 53.8952 78.1944 53.8991 78.2112 53.9096C78.2271 53.9214 78.238 53.9388 78.2416 53.9583C78.2453 53.9778 78.2414 53.998 78.2309 54.0148C78.2238 54.025 78.2143 54.0334 78.2032 54.0391C78.1921 54.0448 78.1798 54.0478 78.1673 54.0477C78.1563 54.0456 78.1458 54.0411 78.1366 54.0345H78.1257ZM89.7631 54.0082C89.753 53.9909 89.7499 53.9704 89.7544 53.9509C89.7588 53.9313 89.7706 53.9142 89.7872 53.903C89.7956 53.8978 89.8048 53.8943 89.8145 53.8927C89.8242 53.8911 89.8342 53.8914 89.8438 53.8936C89.8533 53.8959 89.8624 53.9 89.8703 53.9057C89.8783 53.9115 89.8851 53.9188 89.8902 53.9271C89.8955 53.9355 89.899 53.9448 89.9006 53.9545C89.9022 53.9642 89.9019 53.9741 89.8996 53.9837C89.8974 53.9932 89.8933 54.0023 89.8875 54.0103C89.8818 54.0182 89.8745 54.025 89.8661 54.0302C89.8549 54.039 89.841 54.0437 89.8267 54.0433C89.816 54.0414 89.8058 54.0373 89.7967 54.0313C89.7877 54.0252 89.7799 54.0174 89.7741 54.0082H89.7631ZM63.4589 54.0082C63.4455 53.994 63.438 53.9752 63.438 53.9556C63.438 53.9361 63.4455 53.9173 63.4589 53.903C63.4735 53.8895 63.4927 53.8819 63.5126 53.8819C63.5325 53.8819 63.5517 53.8895 63.5663 53.903C63.5802 53.917 63.588 53.9359 63.588 53.9556C63.588 53.9753 63.5802 53.9943 63.5663 54.0082C63.5599 54.0142 63.5523 54.0189 63.544 54.0219C63.5357 54.0249 63.5269 54.0262 63.5181 54.0258C63.5078 54.0277 63.4973 54.0276 63.4871 54.0253C63.477 54.023 63.4674 54.0187 63.4589 54.0126V54.0082ZM90.3988 53.5961C90.3875 53.5798 90.383 53.5596 90.3863 53.54C90.3896 53.5203 90.4003 53.5028 90.4163 53.4909C90.4245 53.4852 90.4337 53.4811 90.4435 53.479C90.4532 53.4768 90.4633 53.4767 90.4731 53.4785C90.4829 53.4803 90.4923 53.4841 90.5006 53.4897C90.5089 53.4952 90.516 53.5023 90.5215 53.5106C90.5325 53.527 90.5366 53.5469 90.5329 53.5662C90.5292 53.5855 90.518 53.6026 90.5018 53.6137C90.4895 53.622 90.475 53.6266 90.4602 53.6268C90.4486 53.6275 90.437 53.6255 90.4264 53.6209C90.4157 53.6164 90.4063 53.6094 90.3988 53.6005V53.5961ZM77.5207 53.6137C77.5124 53.6084 77.5053 53.6014 77.4998 53.5933C77.4943 53.5852 77.4906 53.576 77.4887 53.5664C77.4869 53.5568 77.487 53.5468 77.4891 53.5373C77.4912 53.5277 77.4952 53.5186 77.501 53.5106C77.5117 53.4941 77.5286 53.4825 77.5479 53.4784C77.5673 53.4743 77.5874 53.478 77.604 53.4887C77.6123 53.4942 77.6194 53.5014 77.625 53.5097C77.6305 53.518 77.6343 53.5273 77.6361 53.5372C77.638 53.547 77.6378 53.5571 77.6357 53.5668C77.6336 53.5766 77.6295 53.5858 77.6237 53.5939C77.6172 53.6043 77.6082 53.6128 77.5974 53.6185C77.5866 53.6243 77.5745 53.6272 77.5623 53.6268C77.5479 53.6279 77.5335 53.6249 77.5207 53.6181V53.6137ZM64.031 53.5304C64.0238 53.5236 64.0181 53.5155 64.0142 53.5064C64.0103 53.4974 64.0083 53.4876 64.0083 53.4778C64.0083 53.4679 64.0103 53.4582 64.0142 53.4491C64.0181 53.4401 64.0238 53.4319 64.031 53.4252C64.0452 53.4118 64.0641 53.4043 64.0836 53.4043C64.1032 53.4043 64.122 53.4118 64.1362 53.4252C64.1502 53.4391 64.158 53.458 64.158 53.4778C64.158 53.4975 64.1502 53.5164 64.1362 53.5304C64.1229 53.5421 64.1057 53.5484 64.088 53.5479C64.0781 53.55 64.0679 53.5498 64.0581 53.5476C64.0482 53.5453 64.039 53.5409 64.031 53.5348V53.5304ZM76.9025 53.2016C76.8941 53.1965 76.8868 53.1897 76.8811 53.1816C76.8754 53.1736 76.8714 53.1644 76.8693 53.1548C76.8673 53.1451 76.8672 53.1352 76.8692 53.1255C76.8711 53.1158 76.875 53.1067 76.8806 53.0985C76.8857 53.0901 76.8925 53.0828 76.9006 53.0771C76.9086 53.0714 76.9177 53.0674 76.9274 53.0653C76.937 53.0633 76.947 53.0632 76.9567 53.0652C76.9664 53.0671 76.9755 53.071 76.9836 53.0766C77.0002 53.0874 77.0118 53.1043 77.0159 53.1236C77.02 53.1429 77.0163 53.1631 77.0056 53.1797C76.9991 53.19 76.99 53.1985 76.9792 53.2042C76.9685 53.21 76.9564 53.2129 76.9442 53.2125C76.93 53.2147 76.9154 53.2124 76.9025 53.206V53.2016ZM91.0082 53.1665C91.0022 53.1588 90.9979 53.15 90.9955 53.1406C90.993 53.1312 90.9925 53.1213 90.9939 53.1117C90.9954 53.1021 90.9987 53.0929 91.0038 53.0846C91.0089 53.0763 91.0156 53.0691 91.0235 53.0635C91.0396 53.0519 91.0596 53.0471 91.0792 53.05C91.0988 53.0528 91.1166 53.0632 91.1287 53.0788C91.14 53.0952 91.1445 53.1153 91.1412 53.135C91.138 53.1546 91.1272 53.1722 91.1112 53.184C91.0982 53.1927 91.0829 53.1972 91.0674 53.1972C91.0561 53.1981 91.0448 53.1961 91.0344 53.1915C91.0241 53.187 91.0151 53.1798 91.0082 53.1709V53.1665ZM64.6031 53.0547C64.5892 53.0407 64.5814 53.0218 64.5814 53.0021C64.5814 52.9824 64.5892 52.9635 64.6031 52.9495C64.6187 52.9375 64.6383 52.9319 64.6579 52.9339C64.6775 52.936 64.6956 52.9455 64.7084 52.9605C64.7146 52.9681 64.7192 52.9768 64.722 52.9863C64.7249 52.9957 64.7258 53.0056 64.7248 53.0153C64.7238 53.0251 64.7208 53.0346 64.7161 53.0432C64.7114 53.0519 64.705 53.0595 64.6974 53.0657C64.6909 53.0717 64.6833 53.0763 64.6751 53.0793C64.6668 53.0823 64.658 53.0837 64.6492 53.0832C64.6314 53.0811 64.615 53.0726 64.6031 53.0591V53.0547ZM76.2822 52.8004C76.2738 52.7953 76.2666 52.7885 76.2608 52.7805C76.255 52.7726 76.2509 52.7635 76.2487 52.7539C76.2465 52.7444 76.2461 52.7344 76.2477 52.7247C76.2493 52.715 76.2529 52.7057 76.2581 52.6974C76.2632 52.689 76.27 52.6818 76.278 52.676C76.286 52.6703 76.295 52.6661 76.3046 52.6639C76.3142 52.6617 76.3241 52.6613 76.3338 52.6629C76.3435 52.6646 76.3528 52.6681 76.3611 52.6733C76.3695 52.6785 76.3768 52.6852 76.3825 52.6932C76.3883 52.7012 76.3924 52.7102 76.3946 52.7198C76.3969 52.7294 76.3972 52.7393 76.3956 52.749C76.394 52.7587 76.3904 52.768 76.3852 52.7763C76.3786 52.7874 76.3693 52.7966 76.3582 52.8031C76.3471 52.8096 76.3345 52.8132 76.3217 52.8136C76.3074 52.8136 76.2936 52.809 76.2822 52.8004ZM91.6088 52.7215C91.6027 52.7138 91.5982 52.7049 91.5955 52.6954C91.5929 52.6859 91.5922 52.676 91.5934 52.6662C91.5946 52.6564 91.5978 52.6469 91.6027 52.6384C91.6076 52.6298 91.6141 52.6223 91.6219 52.6163C91.6297 52.6102 91.6386 52.6057 91.6481 52.6031C91.6576 52.6004 91.6675 52.5997 91.6773 52.6009C91.6871 52.6021 91.6965 52.6053 91.7051 52.6102C91.7136 52.6151 91.7211 52.6216 91.7271 52.6295C91.7384 52.6455 91.7433 52.6652 91.7409 52.6846C91.7385 52.7041 91.7289 52.7219 91.714 52.7347C91.7016 52.7448 91.6861 52.7502 91.6702 52.75C91.6581 52.7517 91.6457 52.7504 91.6343 52.7462C91.6228 52.742 91.6125 52.735 91.6044 52.7259L91.6088 52.7215ZM65.1906 52.5944C65.1791 52.5783 65.1742 52.5583 65.1771 52.5387C65.1799 52.5191 65.1903 52.5013 65.2059 52.4892C65.2221 52.4776 65.242 52.4728 65.2616 52.4757C65.2812 52.4785 65.299 52.4889 65.3112 52.5045C65.3227 52.5206 65.3275 52.5406 65.3247 52.5602C65.3218 52.5798 65.3115 52.5976 65.2958 52.6097C65.283 52.619 65.2678 52.6243 65.252 52.6251C65.2397 52.6263 65.2273 52.6245 65.2159 52.62C65.2044 52.6154 65.1943 52.6081 65.1862 52.5988L65.1906 52.5944ZM75.6443 52.4212C75.6358 52.4162 75.6283 52.4096 75.6223 52.4017C75.6163 52.3938 75.612 52.3848 75.6096 52.3752C75.6071 52.3656 75.6066 52.3556 75.6081 52.3459C75.6095 52.3361 75.6129 52.3267 75.618 52.3182C75.6228 52.3097 75.6292 52.3023 75.6369 52.2963C75.6446 52.2904 75.6534 52.2861 75.6628 52.2836C75.6723 52.2811 75.6821 52.2806 75.6917 52.282C75.7013 52.2835 75.7106 52.2868 75.7189 52.2919C75.7275 52.2965 75.7352 52.3027 75.7413 52.3104C75.7475 52.318 75.752 52.3268 75.7547 52.3362C75.7574 52.3456 75.7581 52.3555 75.7568 52.3652C75.7556 52.3749 75.7523 52.3843 75.7473 52.3927C75.7408 52.4045 75.7313 52.4143 75.7198 52.4213C75.7082 52.4282 75.695 52.4319 75.6816 52.4322C75.6674 52.4333 75.6531 52.4311 75.6399 52.4256L75.6443 52.4212ZM92.1897 52.2568C92.1834 52.2492 92.1788 52.2404 92.176 52.231C92.1731 52.2216 92.1722 52.2117 92.1732 52.2019C92.1743 52.1921 92.1772 52.1827 92.1819 52.174C92.1866 52.1654 92.193 52.1578 92.2006 52.1516C92.2082 52.1454 92.217 52.1407 92.2264 52.1379C92.2359 52.1351 92.2457 52.1342 92.2555 52.1352C92.2653 52.1362 92.2748 52.1391 92.2834 52.1438C92.2921 52.1485 92.2997 52.1549 92.3058 52.1626C92.3193 52.1768 92.3267 52.1956 92.3267 52.2152C92.3267 52.2347 92.3193 52.2535 92.3058 52.2678C92.2919 52.2783 92.2751 52.2844 92.2576 52.2853C92.2445 52.2882 92.2309 52.2875 92.2181 52.2832C92.2054 52.279 92.194 52.2714 92.1853 52.2612L92.1897 52.2568ZM65.7956 52.1604C65.7898 52.1522 65.7857 52.143 65.7836 52.1332C65.7815 52.1235 65.7813 52.1134 65.7832 52.1036C65.785 52.0938 65.7888 52.0844 65.7943 52.0761C65.7999 52.0678 65.807 52.0607 65.8153 52.0552C65.8322 52.0443 65.8527 52.0405 65.8724 52.0446C65.8921 52.0487 65.9094 52.0604 65.9205 52.0771C65.9313 52.0936 65.935 52.1138 65.9309 52.1331C65.9268 52.1524 65.9152 52.1693 65.8986 52.1801C65.8864 52.1887 65.8719 52.1933 65.857 52.1932C65.8445 52.1942 65.832 52.1921 65.8206 52.1871C65.8091 52.1822 65.799 52.1745 65.7912 52.1648L65.7956 52.1604ZM75.0021 52.0683C74.9846 52.059 74.9716 52.0431 74.9658 52.0242C74.9601 52.0053 74.9621 51.9849 74.9714 51.9675C74.9758 51.9586 74.9819 51.9508 74.9894 51.9443C74.9969 51.9379 75.0055 51.933 75.0149 51.93C75.0243 51.9269 75.0342 51.9257 75.044 51.9265C75.0539 51.9273 75.0634 51.9301 75.0722 51.9346C75.0894 51.9447 75.1023 51.9608 75.1083 51.9798C75.1144 51.9988 75.1132 52.0194 75.1051 52.0376C75.098 52.0494 75.0881 52.0592 75.0762 52.0661C75.0643 52.073 75.0509 52.0768 75.0371 52.0771C75.0211 52.0814 75.004 52.0798 74.9889 52.0727L75.0021 52.0683ZM92.7574 51.7768C92.7435 51.7628 92.7357 51.7439 92.7357 51.7242C92.7357 51.7044 92.7435 51.6855 92.7574 51.6715C92.7716 51.6581 92.7905 51.6507 92.81 51.6507C92.8296 51.6507 92.8484 51.6581 92.8626 51.6715C92.876 51.6858 92.8835 51.7046 92.8835 51.7242C92.8835 51.7437 92.876 51.7625 92.8626 51.7768C92.8563 51.7831 92.8487 51.788 92.8405 51.7914C92.8322 51.7948 92.8233 51.7965 92.8144 51.7965C92.804 51.7983 92.7934 51.7978 92.7832 51.7952C92.773 51.7925 92.7634 51.7877 92.7552 51.7811L92.7574 51.7768ZM66.4181 51.768C66.4131 51.7594 66.4098 51.7499 66.4085 51.74C66.4072 51.7301 66.4079 51.7201 66.4106 51.7105C66.4133 51.7009 66.4178 51.6919 66.424 51.6841C66.4302 51.6762 66.4379 51.6698 66.4466 51.665C66.4638 51.6555 66.484 51.6532 66.5029 51.6585C66.5218 51.6638 66.5378 51.6764 66.5475 51.6935C66.5525 51.7021 66.5558 51.7116 66.557 51.7215C66.5583 51.7314 66.5576 51.7414 66.555 51.751C66.5523 51.7606 66.5478 51.7696 66.5416 51.7774C66.5354 51.7852 66.5277 51.7917 66.519 51.7965C66.5067 51.7993 66.494 51.7993 66.4817 51.7965C66.4696 51.7973 66.4575 51.7951 66.4464 51.7901C66.4353 51.7852 66.4256 51.7776 66.4181 51.768ZM74.3203 51.7548C74.3114 51.7508 74.3034 51.7451 74.2967 51.7379C74.29 51.7308 74.2847 51.7224 74.2813 51.7132C74.2778 51.7041 74.2762 51.6943 74.2765 51.6845C74.2768 51.6748 74.279 51.6651 74.2831 51.6562C74.2871 51.6473 74.2929 51.6392 74.3 51.6325C74.3071 51.6258 74.3155 51.6206 74.3247 51.6171C74.3338 51.6137 74.3436 51.612 74.3534 51.6124C74.3632 51.6127 74.3728 51.6149 74.3817 51.6189C74.3908 51.6227 74.3991 51.6283 74.406 51.6354C74.4128 51.6425 74.4182 51.651 74.4217 51.6602C74.4252 51.6694 74.4267 51.6793 74.4263 51.6892C74.4258 51.699 74.4233 51.7087 74.419 51.7176C74.4131 51.7306 74.4035 51.7417 74.3915 51.7495C74.3794 51.7573 74.3654 51.7614 74.351 51.7614C74.3412 51.7611 74.3315 51.7588 74.3225 51.7548H74.3203ZM73.6386 51.4852C73.6292 51.4821 73.6205 51.477 73.6131 51.4704C73.6057 51.4637 73.5998 51.4556 73.5957 51.4466C73.5916 51.4375 73.5894 51.4277 73.5892 51.4178C73.5891 51.4078 73.591 51.398 73.5948 51.3888C73.6021 51.3705 73.6163 51.3557 73.6342 51.3475C73.6522 51.3394 73.6726 51.3384 73.6912 51.3449C73.7095 51.3523 73.7243 51.3664 73.7325 51.3844C73.7406 51.4023 73.7416 51.4228 73.7351 51.4414C73.73 51.4558 73.7205 51.4682 73.7079 51.4769C73.6952 51.4856 73.6802 51.49 73.6649 51.4896C73.6559 51.4903 73.6469 51.4888 73.6386 51.4852ZM67.0757 51.4238C67.0682 51.4058 67.0678 51.3855 67.0747 51.3671C67.0817 51.3488 67.0954 51.3338 67.113 51.3252C67.122 51.3208 67.1319 51.3183 67.1419 51.3178C67.1519 51.3173 67.1619 51.3189 67.1713 51.3224C67.1808 51.3258 67.1894 51.3312 67.1967 51.3381C67.204 51.345 67.2098 51.3533 67.2138 51.3625C67.2178 51.3715 67.2199 51.3813 67.2201 51.3912C67.2202 51.4011 67.2184 51.4109 67.2148 51.4201C67.2111 51.4292 67.2056 51.4376 67.1987 51.4446C67.1918 51.4517 67.1835 51.4573 67.1744 51.4611C67.1643 51.4634 67.1538 51.4634 67.1437 51.4611C67.13 51.4617 67.1165 51.4586 67.1045 51.452C67.0925 51.4454 67.0825 51.4357 67.0757 51.4238ZM72.935 51.2463C72.916 51.2402 72.9001 51.227 72.8907 51.2094C72.8813 51.1918 72.8791 51.1712 72.8846 51.152C72.8906 51.133 72.9039 51.1171 72.9215 51.1077C72.9391 51.0983 72.9596 51.0961 72.9788 51.1016C72.9978 51.1077 73.0137 51.1209 73.0232 51.1385C73.0326 51.1561 73.0348 51.1767 73.0292 51.1959C73.0242 51.2111 73.0145 51.2244 73.0015 51.2338C72.9886 51.2432 72.973 51.2484 72.9569 51.2485H72.935V51.2463ZM67.764 51.1433C67.761 51.1339 67.7598 51.124 67.7605 51.1142C67.7613 51.1044 67.764 51.0949 67.7685 51.0861C67.773 51.0773 67.7791 51.0695 67.7867 51.0632C67.7942 51.0568 67.8029 51.052 67.8122 51.049C67.8216 51.0459 67.8315 51.0448 67.8413 51.0455C67.8511 51.0463 67.8607 51.049 67.8694 51.0535C67.8782 51.058 67.886 51.0641 67.8923 51.0716C67.8987 51.0792 67.9035 51.0879 67.9065 51.0972C67.9096 51.1066 67.9108 51.1165 67.91 51.1263C67.9092 51.1361 67.9065 51.1457 67.902 51.1544C67.8976 51.1632 67.8914 51.171 67.8839 51.1773C67.8764 51.1837 67.8677 51.1885 67.8583 51.1915H67.8342C67.8193 51.1911 67.8049 51.1864 67.7928 51.1778C67.7807 51.1692 67.7714 51.1572 67.7662 51.1433H67.764ZM72.2204 51.0644C72.2013 51.0601 72.1846 51.0486 72.1739 51.0322C72.1633 51.0158 72.1595 50.9958 72.1634 50.9767C72.1652 50.9668 72.169 50.9575 72.1746 50.9492C72.1802 50.9409 72.1874 50.9338 72.1958 50.9285C72.2043 50.9231 72.2138 50.9196 72.2236 50.9181C72.2335 50.9165 72.2436 50.9171 72.2533 50.9197C72.2629 50.9215 72.272 50.9252 72.2801 50.9307C72.2882 50.9361 72.2952 50.9431 72.3005 50.9513C72.3058 50.9595 72.3094 50.9687 72.3111 50.9784C72.3128 50.988 72.3125 50.9979 72.3103 51.0074C72.3067 51.0244 72.2973 51.0396 72.2837 51.0504C72.2701 51.0612 72.2531 51.0669 72.2357 51.0665H72.2204V51.0644ZM68.4764 50.9394C68.4742 50.9296 68.474 50.9195 68.4758 50.9096C68.4775 50.8997 68.4813 50.8902 68.4868 50.8819C68.4924 50.8735 68.4995 50.8663 68.5079 50.8607C68.5163 50.8552 68.5257 50.8514 68.5356 50.8495C68.5548 50.8456 68.5747 50.8494 68.5911 50.8601C68.6075 50.8707 68.6191 50.8874 68.6233 50.9065C68.6256 50.9162 68.6259 50.9262 68.6242 50.936C68.6226 50.9457 68.619 50.9551 68.6137 50.9634C68.6084 50.9718 68.6014 50.979 68.5933 50.9847C68.5852 50.9903 68.576 50.9943 68.5663 50.9964H68.551C68.5344 50.996 68.5183 50.9902 68.5053 50.98C68.4922 50.9697 68.4829 50.9555 68.4786 50.9394H68.4764ZM71.4948 50.9394C71.4752 50.9362 71.4577 50.9254 71.4458 50.9095C71.4339 50.8936 71.4287 50.8736 71.4313 50.8539C71.4323 50.8442 71.4354 50.8348 71.4402 50.8262C71.445 50.8177 71.4515 50.8102 71.4593 50.8043C71.4671 50.7983 71.476 50.794 71.4855 50.7916C71.495 50.7892 71.5049 50.7888 71.5146 50.7904C71.5342 50.7936 71.5517 50.8043 71.5636 50.8203C71.5755 50.8362 71.5807 50.8561 71.5781 50.8758C71.5751 50.8935 71.5659 50.9095 71.5523 50.9211C71.5387 50.9327 71.5215 50.9392 71.5036 50.9394H71.4926H71.4948ZM69.2086 50.8145C69.2067 50.795 69.2126 50.7756 69.2249 50.7605C69.2372 50.7453 69.2549 50.7356 69.2743 50.7334C69.2842 50.7318 69.2942 50.7323 69.3039 50.7349C69.3135 50.7374 69.3225 50.7419 69.3303 50.7481C69.3382 50.7542 69.3446 50.762 69.3493 50.7707C69.354 50.7795 69.3568 50.7892 69.3576 50.7991C69.3595 50.8191 69.3534 50.8391 69.3407 50.8547C69.328 50.8702 69.3096 50.8802 69.2897 50.8824C69.27 50.8831 69.2509 50.8761 69.2362 50.8631C69.2215 50.85 69.2124 50.8318 69.2108 50.8123L69.2086 50.8145ZM70.7605 50.8627C70.7506 50.8624 70.7409 50.8601 70.7319 50.856C70.7229 50.8518 70.7149 50.8458 70.7083 50.8384C70.7018 50.831 70.6968 50.8224 70.6937 50.813C70.6906 50.8036 70.6895 50.7936 70.6904 50.7838C70.6909 50.774 70.6934 50.7644 70.6977 50.7556C70.702 50.7467 70.7079 50.7388 70.7153 50.7323C70.7226 50.7258 70.7311 50.7208 70.7404 50.7176C70.7497 50.7144 70.7595 50.713 70.7693 50.7136C70.7892 50.7153 70.8078 50.7247 70.8209 50.7399C70.834 50.7551 70.8406 50.7747 70.8394 50.7947C70.8383 50.8137 70.83 50.8316 70.8161 50.8446C70.8022 50.8577 70.7839 50.8649 70.7649 50.8649L70.7605 50.8627ZM69.9495 50.7662C69.9492 50.7564 69.9509 50.7465 69.9545 50.7374C69.9582 50.7282 69.9636 50.7198 69.9706 50.7129C69.9776 50.7059 69.9859 50.7004 69.9951 50.6968C70.0043 50.6931 70.0141 50.6914 70.024 50.6917C70.0438 50.6917 70.0627 50.6996 70.0767 50.7135C70.0907 50.7275 70.0985 50.7465 70.0985 50.7662C70.0985 50.786 70.0907 50.805 70.0767 50.8189C70.0627 50.8329 70.0438 50.8408 70.024 50.8408C70.0142 50.8405 70.0046 50.8383 69.9956 50.8343C69.9867 50.8303 69.9786 50.8245 69.9719 50.8174C69.9652 50.8103 69.96 50.8019 69.9565 50.7927C69.953 50.7836 69.9514 50.7738 69.9517 50.764L69.9495 50.7662Z" fill="white"/>
<path d="M55.2936 55.8693C55.2842 55.8713 55.2745 55.8713 55.2651 55.8693C55.2558 55.8655 55.2475 55.8595 55.241 55.8517C55.2335 55.8455 55.2281 55.8371 55.2257 55.8276C55.2234 55.8182 55.2234 55.8085 55.2257 55.7991C55.2264 55.7795 55.2342 55.7608 55.2476 55.7465C55.2542 55.7394 55.2625 55.7341 55.2717 55.7312C55.2806 55.7269 55.2903 55.7247 55.3002 55.7247C55.3101 55.7247 55.3198 55.7269 55.3287 55.7312C55.3382 55.7336 55.3466 55.739 55.3528 55.7465C55.3598 55.7533 55.3654 55.7615 55.3692 55.7706C55.3729 55.7796 55.3748 55.7893 55.3747 55.7991C55.3771 55.8085 55.3771 55.8183 55.3747 55.8276C55.3715 55.8372 55.3653 55.8456 55.3572 55.8517C55.3507 55.8595 55.3424 55.8655 55.3331 55.8693C55.3203 55.8736 55.3064 55.8736 55.2936 55.8693Z" fill="white"/>
</g>
<path d="M67.3125 33.4252L66.8017 32.8728C65.8794 33.7452 64.6605 34.2356 63.3909 34.245C62.3835 34.2609 61.4027 33.9216 60.6203 33.2868C59.838 32.6519 59.304 31.7619 59.1121 30.7728L58.3449 30.9745L57.6435 31.1586C57.8427 32.1942 58.3279 33.1532 59.0442 33.9271C61.2691 36.3252 65.2125 36.3252 67.7816 33.9271L67.3125 33.4252Z" fill="white"/>
<path d="M68.4063 25.192L67.7333 25.8167L67.2708 26.2551C67.6791 26.6982 67.9912 27.221 68.1873 27.7907C68.3835 28.3604 68.4596 28.9645 68.4107 29.565C68.3111 30.8324 67.7365 32.0155 66.8017 32.8772L67.2029 33.3156L67.7816 33.9381C69.0144 32.7997 69.7722 31.2379 69.9034 29.565C69.9688 28.7723 69.8696 27.9746 69.6119 27.222C69.3543 26.4694 68.9438 25.7783 68.4063 25.192Z" fill="#263238"/>
<path d="M68.4063 25.192C66.1814 22.7961 62.2379 22.7961 59.6711 25.192C58.8587 25.9356 58.2474 26.8725 57.8941 27.9157C57.5407 28.9588 57.4568 30.0743 57.6501 31.1586L58.5269 30.9394L59.1275 30.7816C59.0508 30.3824 59.0272 29.9748 59.0573 29.5694C59.1638 28.305 59.7365 27.1253 60.6642 26.2596C61.5919 25.3939 62.8083 24.904 64.0771 24.8851C64.6786 24.8785 65.2749 24.9971 65.8281 25.2333C66.3813 25.4695 66.8793 25.8182 67.2905 26.2573L67.8824 25.7027L68.4063 25.192Z" fill="#407BFF"/>
<path d="M74.7039 33.4252L75.2936 32.8728C74.8866 32.4296 74.5757 31.9069 74.3807 31.3376C74.1856 30.7683 74.1106 30.1648 74.1603 29.5651C74.2502 28.5115 74.6631 27.5114 75.3426 26.7013C76.0221 25.8911 76.9351 25.3104 77.9569 25.0385L77.8078 24.2845L77.6741 23.5962C76.5954 23.8837 75.6044 24.4334 74.7894 25.1964C72.2204 27.5922 71.9398 31.5357 74.1625 33.9337L74.7039 33.4252Z" fill="white"/>
<path d="M82.8999 33.9293L82.319 33.3024L81.9201 32.864C80.9982 33.7375 79.7792 34.2286 78.5093 34.2384C77.9075 34.245 77.3108 34.1265 76.7572 33.8902C76.2037 33.654 75.7052 33.3053 75.2936 32.8662L74.8311 33.3046L74.1625 33.9293C74.7063 34.5068 75.3636 34.9655 76.0931 35.2767C76.8227 35.5879 77.6087 35.7449 78.4019 35.7377C80.0756 35.7234 81.6821 35.0775 82.8999 33.9293Z" fill="#263238"/>
<path d="M82.8999 33.9293C85.4668 31.5313 85.7495 27.5878 83.5268 25.192C82.7883 24.4193 81.8534 23.8621 80.8224 23.5803C79.7914 23.2984 78.7031 23.3024 77.6741 23.5918L77.8407 24.4445L77.9569 25.0341C78.3562 24.9294 78.7673 24.8763 79.18 24.8763C79.783 24.8674 80.381 24.9853 80.9354 25.2224C81.4898 25.4595 81.9882 25.8105 82.3982 26.2526C82.8083 26.6947 83.1208 27.218 83.3156 27.7886C83.5104 28.3593 83.5831 28.9645 83.529 29.565C83.4289 30.8317 82.8543 32.0138 81.9201 32.875L82.433 33.4296L82.8999 33.9293Z" fill="#407BFF"/>
<path opacity="0.3" d="M93.2528 23.9337C93.313 23.9336 93.3727 23.9459 93.428 23.9698C93.4833 23.9937 93.533 24.0288 93.5742 24.0728C93.6153 24.1168 93.6469 24.1688 93.6671 24.2256C93.6872 24.2824 93.6954 24.3427 93.6912 24.4028L93.4194 28.1841C93.4066 28.3177 93.3454 28.4421 93.2473 28.5337C93.1492 28.6254 93.0209 28.678 92.8867 28.6817H89.1033C89.0429 28.6818 88.983 28.6695 88.9276 28.6454C88.8721 28.6214 88.8222 28.5861 88.7811 28.5418C88.7399 28.4976 88.7083 28.4453 88.6883 28.3882C88.6683 28.3312 88.6604 28.2706 88.6649 28.2104L88.9345 24.4291C88.9474 24.2957 89.0086 24.1716 89.1068 24.0803C89.205 23.989 89.3332 23.9369 89.4672 23.9337H93.2484M93.2484 23.7387H89.4716C89.2884 23.7423 89.113 23.8134 88.9791 23.9384C88.8452 24.0634 88.7622 24.2335 88.746 24.416L88.4764 28.1972C88.4691 28.2838 88.4799 28.3709 88.5081 28.453C88.5364 28.5351 88.5814 28.6105 88.6404 28.6742C88.6994 28.7379 88.771 28.7887 88.8507 28.8232C88.9304 28.8577 89.0165 28.8752 89.1033 28.8746H92.8845C93.0678 28.8714 93.2435 28.8004 93.3775 28.6753C93.5115 28.5502 93.5944 28.3799 93.6101 28.1972L93.8819 24.416C93.8892 24.3293 93.8784 24.242 93.85 24.1597C93.8216 24.0774 93.7764 24.002 93.7171 23.9382C93.6579 23.8744 93.586 23.8237 93.506 23.7894C93.4261 23.755 93.3398 23.7377 93.2528 23.7387H93.2484Z" fill="#407BFF"/>
<path opacity="0.3" d="M92.7859 30.4419C92.8461 30.4417 92.9058 30.454 92.9611 30.4779C93.0164 30.5018 93.0661 30.5369 93.1073 30.5809C93.1484 30.6249 93.18 30.677 93.2002 30.7337C93.2203 30.7905 93.2285 30.8509 93.2243 30.911L92.9547 34.6922C92.9414 34.8257 92.8801 34.9497 92.7821 35.0413C92.6841 35.1329 92.5561 35.1856 92.422 35.1898H88.6386C88.5782 35.1899 88.5183 35.1776 88.4629 35.1535C88.4074 35.1295 88.3575 35.0942 88.3164 35.05C88.2752 35.0057 88.2436 34.9534 88.2236 34.8964C88.2036 34.8393 88.1957 34.7788 88.2002 34.7185L88.472 30.9373C88.4848 30.8038 88.5461 30.6797 88.6443 30.5884C88.7424 30.4971 88.8707 30.445 89.0047 30.4419H92.7837M92.7837 30.2468H89.0069C88.8235 30.2499 88.6479 30.3209 88.5139 30.446C88.3799 30.5711 88.297 30.7414 88.2813 30.9241L88.0095 34.7053C88.0022 34.7921 88.013 34.8794 88.0414 34.9616C88.0698 35.0439 88.115 35.1194 88.1743 35.1831C88.2335 35.2469 88.3054 35.2976 88.3853 35.332C88.4653 35.3663 88.5516 35.3836 88.6386 35.3827H92.4198C92.603 35.3791 92.7784 35.3079 92.9123 35.1829C93.0462 35.0579 93.1292 34.8878 93.1454 34.7053L93.415 30.9241C93.4223 30.8374 93.4115 30.7501 93.3831 30.6678C93.3547 30.5855 93.3095 30.5101 93.2502 30.4463C93.191 30.3825 93.1191 30.3318 93.0392 30.2975C92.9592 30.2631 92.8729 30.2458 92.7859 30.2468H92.7837Z" fill="#407BFF"/>
<path d="M87.2423 51.3603C87.2931 51.359 87.3436 51.3685 87.3904 51.3881C87.4373 51.4078 87.4794 51.4371 87.5141 51.4743C87.5485 51.5119 87.5746 51.5563 87.5908 51.6046C87.6071 51.6529 87.613 51.7041 87.6084 51.7548C87.5986 51.8687 87.5471 51.9749 87.4637 52.053C87.3804 52.1311 87.271 52.1756 87.1568 52.1779C87.1058 52.1794 87.0551 52.17 87.0081 52.1503C86.9611 52.1307 86.9188 52.1011 86.8841 52.0638C86.8495 52.0264 86.8232 51.982 86.8071 51.9337C86.791 51.8853 86.7854 51.834 86.7907 51.7833C86.8 51.6693 86.8513 51.5628 86.9348 51.4846C87.0183 51.4064 87.1279 51.3621 87.2423 51.3603ZM87.2423 51.1674C87.0796 51.17 86.9237 51.2329 86.8046 51.3438C86.6856 51.4548 86.6119 51.6059 86.5978 51.768C86.5907 51.8452 86.6 51.9231 86.625 51.9965C86.65 52.0699 86.6901 52.1372 86.7429 52.1941C86.7956 52.2509 86.8597 52.296 86.931 52.3265C87.0023 52.3569 87.0793 52.372 87.1568 52.3708C87.3198 52.3681 87.4761 52.3049 87.5951 52.1935C87.7142 52.0821 87.7877 51.9305 87.8012 51.768C87.808 51.6909 87.7985 51.6133 87.7734 51.5402C87.7482 51.467 87.708 51.4 87.6553 51.3434C87.6026 51.2867 87.5387 51.2418 87.4675 51.2115C87.3963 51.1812 87.3196 51.1661 87.2423 51.1674Z" fill="#407BFF"/>
<path d="M87.2993 51.1696L87.2028 51.163L87.2182 50.9701L87.3124 50.9767L87.2993 51.1696Z" fill="#407BFF"/>
<path d="M87.3409 50.5821H87.2445L87.273 50.1875H87.3694L87.3409 50.5821ZM87.3979 49.7886H87.3015L87.33 49.394H87.4264L87.3979 49.7886ZM87.4549 48.9973H87.3585L87.387 48.6005H87.4834L87.4549 48.9973ZM87.5119 48.206H87.4155L87.444 47.8092H87.5404L87.5119 48.206ZM87.5689 47.4146H87.4724L87.5009 47.0179H87.5974L87.5689 47.4146ZM87.6259 46.6233H87.5294L87.5579 46.2266H87.6544L87.6259 46.6233ZM87.6829 45.8298H87.5864L87.6149 45.4353H87.7114L87.6829 45.8298ZM87.7399 45.0385H87.6434L87.6719 44.6417H87.7684L87.7399 45.0385ZM87.7969 44.2472H87.7004L87.7289 43.8504H87.8254L87.7969 44.2472ZM87.8517 43.4559H87.7552L87.7837 43.0591H87.8802L87.8517 43.4559ZM87.9087 42.6645H87.8122L87.8407 42.2678H87.9372L87.9087 42.6645Z" fill="#407BFF"/>
<path d="M87.8805 41.6725L87.8669 41.8649L87.9631 41.8718L87.9767 41.6794L87.8805 41.6725Z" fill="#407BFF"/>
<path d="M92.0165 41.7812H57.3081C57.2131 41.7821 57.1189 41.763 57.0317 41.7253C56.9445 41.6875 56.8661 41.6319 56.8017 41.562C56.7367 41.492 56.687 41.4093 56.6557 41.3191C56.6244 41.229 56.6121 41.1332 56.6198 41.0381L56.793 38.6488C56.8093 38.4533 56.8978 38.271 57.0413 38.1372C57.1847 38.0035 57.3728 37.928 57.569 37.9254H92.2839C92.3787 37.9248 92.4726 37.9439 92.5596 37.9815C92.6467 38.0191 92.7249 38.0744 92.7894 38.1439C92.8539 38.2133 92.9033 38.2954 92.9344 38.385C92.9655 38.4746 92.9776 38.5696 92.97 38.6641L92.7991 41.0534C92.7832 41.2506 92.694 41.4346 92.5492 41.5693C92.4043 41.704 92.2143 41.7796 92.0165 41.7812ZM57.569 38.1358C57.4254 38.1381 57.2877 38.1936 57.1828 38.2916C57.0779 38.3897 57.0132 38.5232 57.0012 38.6663L56.8302 41.0556C56.8247 41.1219 56.8329 41.1887 56.8544 41.2517C56.8759 41.3147 56.9102 41.3726 56.9552 41.4217C57.0005 41.4696 57.0552 41.5076 57.116 41.5333C57.1767 41.559 57.2422 41.5717 57.3081 41.5707H92.0165C92.1602 41.569 92.2981 41.5136 92.4032 41.4155C92.5082 41.3174 92.5728 41.1835 92.5842 41.0403L92.7574 38.651C92.7625 38.5855 92.7541 38.5197 92.7327 38.4577C92.7112 38.3956 92.6772 38.3386 92.6328 38.2903C92.5884 38.242 92.5345 38.2033 92.4745 38.1767C92.4144 38.1502 92.3496 38.1362 92.2839 38.1358H57.569Z" fill="#407BFF"/>
<path opacity="0.8" fill-rule="evenodd" clip-rule="evenodd" d="M91.2712 39.4686H58.369C58.3271 39.469 58.2855 39.4607 58.247 39.4442C58.2085 39.4276 58.1739 39.4031 58.1454 39.3724C58.1169 39.3416 58.0951 39.3052 58.0816 39.2655C58.068 39.2258 58.0629 39.1837 58.0665 39.142C58.0746 39.0545 58.1146 38.9731 58.1789 38.9132C58.2432 38.8534 58.3273 38.8193 58.4151 38.8176H91.3194C91.3611 38.8171 91.4024 38.8253 91.4406 38.8418C91.4789 38.8583 91.5133 38.8826 91.5416 38.9131C91.5699 38.9437 91.5914 38.9799 91.6049 39.0193C91.6184 39.0587 91.6234 39.1005 91.6197 39.142C91.6127 39.23 91.573 39.3122 91.5086 39.3726C91.4442 39.433 91.3595 39.4672 91.2712 39.4686Z" fill="white"/>
<path opacity="0.8" fill-rule="evenodd" clip-rule="evenodd" d="M85.789 40.8386H58.2704C58.2287 40.839 58.1875 40.8308 58.1492 40.8143C58.1109 40.7979 58.0766 40.7736 58.0483 40.743C58.02 40.7124 57.9984 40.6763 57.9849 40.6369C57.9715 40.5974 57.9664 40.5556 57.9701 40.5142C57.9772 40.4261 58.0168 40.3439 58.0812 40.2835C58.1457 40.2231 58.2303 40.1889 58.3186 40.1876H85.835C85.8787 40.1856 85.9223 40.1932 85.9627 40.2099C86.0032 40.2266 86.0395 40.2518 86.0691 40.284C86.0988 40.3161 86.121 40.3544 86.1343 40.396C86.1477 40.4377 86.1517 40.4817 86.1463 40.5251C86.1355 40.6121 86.0932 40.6921 86.0273 40.7499C85.9614 40.8077 85.8766 40.8392 85.789 40.8386Z" fill="white"/>
</svg>
