<svg width="60" height="60" viewBox="0 0 60 60" fill="none" xmlns="http://www.w3.org/2000/svg">
<path d="M49.9312 13.9031L51.8062 14.3906L43.6313 22.5656C43.4661 22.5218 43.2959 22.4997 43.125 22.5C42.7978 22.502 42.4768 22.5895 42.1939 22.754C41.911 22.9185 41.6761 23.1541 41.5125 23.4375H29.7375C29.5739 23.1541 29.339 22.9185 29.0561 22.754C28.7732 22.5895 28.4522 22.502 28.125 22.5C27.6277 22.5 27.1508 22.6975 26.7992 23.0492C26.4475 23.4008 26.25 23.8777 26.25 24.375C26.2521 24.5365 26.2741 24.6971 26.3156 24.8531L16.9406 34.2281C15.8382 33.4008 14.5032 32.9415 13.125 32.9156V19.6875H45.9375V17.8125H12.1875C11.9389 17.8125 11.7004 17.9113 11.5246 18.0871C11.3488 18.2629 11.25 18.5014 11.25 18.75V33.1594C9.87485 33.5472 8.66384 34.3732 7.8009 35.5119C6.93795 36.6507 6.47022 38.04 6.46875 39.4687C6.47078 40.8855 6.93121 42.2635 7.78125 43.3969L3.09375 48.0844L4.425 49.4156L9.1125 44.7281C10.3813 45.6637 11.9444 46.1114 13.5161 45.9891C15.0878 45.8669 16.563 45.183 17.6719 44.0625C18.2199 43.5185 18.6702 42.8842 19.0031 42.1875H47.8125C48.0611 42.1875 48.2996 42.0887 48.4754 41.9129C48.6512 41.7371 48.75 41.4986 48.75 41.25V22.5H46.875V40.3125H19.5375C19.5375 40.0312 19.5938 39.75 19.5938 39.4687C19.5917 38.052 19.1313 36.674 18.2813 35.5406L27.6563 26.1656C27.8085 26.2127 27.9659 26.241 28.125 26.25C28.4522 26.248 28.7732 26.1605 29.0561 25.996C29.339 25.8315 29.5739 25.5959 29.7375 25.3125H41.5125C41.6761 25.5959 41.911 25.8315 42.1939 25.996C42.4768 26.1605 42.7978 26.248 43.125 26.25C43.6223 26.25 44.0992 26.0525 44.4508 25.7008C44.8025 25.3492 45 24.8723 45 24.375C44.9979 24.2135 44.9759 24.0529 44.9344 23.8969L53.1094 15.7219L53.5969 17.5969L56.25 11.25L49.9312 13.9031ZM16.4062 37.9687C16.4062 38.3396 16.2963 38.7021 16.0903 39.0104C15.8842 39.3188 15.5914 39.5591 15.2488 39.701C14.9062 39.8429 14.5292 39.8801 14.1655 39.8077C13.8017 39.7354 13.4676 39.5568 13.2054 39.2946C12.9432 39.0324 12.7646 38.6983 12.6923 38.3345C12.6199 37.9708 12.6571 37.5938 12.799 37.2512C12.9409 36.9086 13.1812 36.6158 13.4896 36.4097C13.7979 36.2037 14.1604 36.0937 14.5312 36.0937C14.6927 36.0958 14.8533 36.1179 15.0094 36.1594L15.6187 35.5594C16.135 35.9172 16.5828 36.365 16.9406 36.8812L16.3406 37.4906C16.3821 37.6467 16.4042 37.8073 16.4062 37.9687Z" fill="#5F5AD9"/>
<path d="M26.25 34.6875H24.375V38.4375H26.25V34.6875Z" fill="#5F5AD9"/>
<path d="M30 32.8125H28.125V38.4375H30V32.8125Z" fill="#5F5AD9"/>
<path d="M33.75 33.75H31.875V38.4375H33.75V33.75Z" fill="#5F5AD9"/>
<path d="M37.5 31.875H35.625V38.4375H37.5V31.875Z" fill="#5F5AD9"/>
<path d="M41.25 32.8125H39.375V38.4375H41.25V32.8125Z" fill="#5F5AD9"/>
<path d="M45 30H43.125V38.4375H45V30Z" fill="#5F5AD9"/>
</svg>
