<svg width="60" height="60" viewBox="0 0 60 60" fill="none" xmlns="http://www.w3.org/2000/svg">
<path d="M25 55C15.5719 55 10.8579 55 7.92893 52.071C5 49.1422 5 46.928 5 37.5" stroke="#5F5AD9" stroke-width="3.75" stroke-linecap="round"/>
<path d="M55 37.5C55 46.928 55 49.1422 52.071 52.071C49.1422 55 44.428 55 35 55" stroke="#5F5AD9" stroke-width="3.75" stroke-linecap="round"/>
<path d="M35 5C44.428 5 49.1422 5 52.071 7.92893C55 10.8579 55 13.0719 55 22.5" stroke="#5F5AD9" stroke-width="3.75" stroke-linecap="round"/>
<path d="M25 5C15.5719 5 10.8579 5 7.92893 7.92893C5 10.8579 5 13.0719 5 22.5" stroke="#5F5AD9" stroke-width="3.75" stroke-linecap="round"/>
<path d="M14.7311 35.1495C13.2437 33.4243 12.5 32.5615 12.5 30C12.5 27.4385 13.2437 26.5758 14.731 24.8505C17.7009 21.4056 22.6817 17.5 30 17.5C37.3182 17.5 42.299 21.4056 45.269 24.8505C46.7562 26.5758 47.5 27.4385 47.5 30C47.5 32.5615 46.7562 33.4243 45.269 35.1495C42.299 38.5945 37.3182 42.5 30 42.5C22.6817 42.5 17.7009 38.5945 14.7311 35.1495Z" stroke="#5F5AD9" stroke-width="3.75"/>
<path d="M30 35C32.7614 35 35 32.7614 35 30C35 27.2386 32.7614 25 30 25C27.2386 25 25 27.2386 25 30C25 32.7614 27.2386 35 30 35Z" stroke="#5F5AD9" stroke-width="3.75"/>
</svg>
