<svg width="60" height="60" viewBox="0 0 60 60" fill="none" xmlns="http://www.w3.org/2000/svg">
<path d="M21.25 34.8325H13.9075C12.2499 34.8325 10.6602 34.174 9.48808 33.0019C8.31598 31.8298 7.6575 30.2401 7.6575 28.5825V13.9075C7.6575 12.2499 8.31598 10.6602 9.48808 9.48808C10.6602 8.31598 12.2499 7.6575 13.9075 7.6575H21.25C22.9076 7.6575 24.4973 8.31598 25.6694 9.48808C26.8415 10.6602 27.5 12.2499 27.5 13.9075V28.5825C27.5 30.2401 26.8415 31.8298 25.6694 33.0019C24.4973 34.174 22.9076 34.8325 21.25 34.8325ZM13.9075 10.1575C12.9129 10.1575 11.9591 10.5526 11.2559 11.2559C10.5526 11.9591 10.1575 12.9129 10.1575 13.9075V28.5825C10.1575 29.5771 10.5526 30.5309 11.2559 31.2342C11.9591 31.9374 12.9129 32.3325 13.9075 32.3325H21.25C22.2446 32.3325 23.1984 31.9374 23.9017 31.2342C24.6049 30.5309 25 29.5771 25 28.5825V13.9075C25 12.9129 24.6049 11.9591 23.9017 11.2559C23.1984 10.5526 22.2446 10.1575 21.25 10.1575H13.9075Z" fill="#5F5AD9"/>
<path d="M21.25 52.3375H13.91C12.2524 52.3375 10.6627 51.679 9.49059 50.5069C8.31848 49.3348 7.66 47.7451 7.66 46.0875C7.66 44.4299 8.31848 42.8402 9.49059 41.6681C10.6627 40.496 12.2524 39.8375 13.91 39.8375H21.25C22.9076 39.8375 24.4973 40.496 25.6694 41.6681C26.8415 42.8402 27.5 44.4299 27.5 46.0875C27.5 47.7451 26.8415 49.3348 25.6694 50.5069C24.4973 51.679 22.9076 52.3375 21.25 52.3375ZM13.915 42.3375C12.9204 42.3375 11.9666 42.7326 11.2634 43.4359C10.5601 44.1391 10.165 45.0929 10.165 46.0875C10.165 47.0821 10.5601 48.0359 11.2634 48.7392C11.9666 49.4424 12.9204 49.8375 13.915 49.8375H21.25C22.2446 49.8375 23.1984 49.4424 23.9017 48.7392C24.6049 48.0359 25 47.0821 25 46.0875C25 45.0929 24.6049 44.1391 23.9017 43.4359C23.1984 42.7326 22.2446 42.3375 21.25 42.3375H13.915Z" fill="#5F5AD9"/>
<path d="M46.09 52.3375H38.75C37.9292 52.3375 37.1165 52.1758 36.3582 51.8618C35.5999 51.5477 34.9109 51.0873 34.3306 50.5069C33.7502 49.9266 33.2898 49.2376 32.9758 48.4793C32.6617 47.721 32.5 46.9083 32.5 46.0875V31.4125C32.5 29.7549 33.1585 28.1652 34.3306 26.9931C35.5027 25.821 37.0924 25.1625 38.75 25.1625H46.085C46.9058 25.1625 47.7185 25.3242 48.4768 25.6383C49.2351 25.9523 49.924 26.4127 50.5044 26.9931C51.0848 27.5734 51.5452 28.2624 51.8592 29.0207C52.1733 29.779 52.335 30.5917 52.335 31.4125V46.0875C52.335 47.7442 51.6772 49.3332 50.5062 50.5052C49.3352 51.6771 47.7467 52.3362 46.09 52.3375ZM38.75 27.6625C37.7554 27.6625 36.8016 28.0576 36.0983 28.7609C35.3951 29.4641 35 30.4179 35 31.4125V46.0875C35 47.0821 35.3951 48.0359 36.0983 48.7392C36.8016 49.4424 37.7554 49.8375 38.75 49.8375H46.085C47.0796 49.8375 48.0334 49.4424 48.7366 48.7392C49.4399 48.0359 49.835 47.0821 49.835 46.0875V31.4125C49.835 30.4179 49.4399 29.4641 48.7366 28.7609C48.0334 28.0576 47.0796 27.6625 46.085 27.6625H38.75Z" fill="#5F5AD9"/>
<path d="M46.09 20.1575H38.75C37.0924 20.1575 35.5027 19.499 34.3306 18.3269C33.1585 17.1548 32.5 15.5651 32.5 13.9075C32.5 12.2499 33.1585 10.6602 34.3306 9.48808C35.5027 8.31598 37.0924 7.6575 38.75 7.6575H46.085C47.7426 7.6575 49.3323 8.31598 50.5044 9.48808C51.6765 10.6602 52.335 12.2499 52.335 13.9075C52.335 15.5651 51.6765 17.1548 50.5044 18.3269C49.3323 19.499 47.7426 20.1575 46.085 20.1575H46.09ZM38.755 10.1575C37.7604 10.1575 36.8066 10.5526 36.1033 11.2559C35.4001 11.9591 35.005 12.9129 35.005 13.9075C35.005 14.9021 35.4001 15.8559 36.1033 16.5592C36.8066 17.2624 37.7604 17.6575 38.755 17.6575H46.09C47.0846 17.6575 48.0384 17.2624 48.7416 16.5592C49.4449 15.8559 49.84 14.9021 49.84 13.9075C49.84 12.9129 49.4449 11.9591 48.7416 11.2559C48.0384 10.5526 47.0846 10.1575 46.09 10.1575H38.755Z" fill="#5F5AD9"/>
</svg>
