<svg width="60" height="60" viewBox="0 0 60 60" fill="none" xmlns="http://www.w3.org/2000/svg">
<path d="M7.47562 7.5H5.625V52.5H54.375V50.6944L7.5075 50.6006L7.47562 7.5ZM31.875 9.375C31.875 8.33813 31.035 7.5 30 7.5H24.375C23.3381 7.5 22.5 8.33813 22.5 9.375V46.875H31.875V9.375ZM20.625 20.625C20.625 19.59 19.785 18.75 18.75 18.75H13.125C12.0881 18.75 11.25 19.59 11.25 20.625V46.875H20.625V20.625ZM43.125 31.875C43.125 30.8381 42.285 30 41.25 30H35.625C34.5881 30 33.75 30.8381 33.75 31.875V46.875H43.125V31.875ZM52.5 41.25H46.875C45.8381 41.25 45 42.0881 45 43.125V46.875H54.375V43.125C54.375 42.0881 53.535 41.25 52.5 41.25Z" fill="#5F5AD9"/>
</svg>
