<svg width="60" height="60" viewBox="0 0 60 60" fill="none" xmlns="http://www.w3.org/2000/svg">
<g clip-path="url(#clip0_4_2)">
<path d="M45.5072 4.55595L44.6614 8.6086C43.7945 8.7448 42.9595 8.9956 42.1768 9.34575L39.2654 6.4045L35.9499 9.08755L38.2176 12.5527C37.7124 13.2458 37.2998 14.0079 36.9865 14.8279L32.844 14.8092L32.3987 19.0527L36.4514 19.8984C36.5876 20.7648 36.8387 21.5932 37.1885 22.3756L34.2473 25.2944L36.9303 28.6099L40.3955 26.3384C41.0881 26.8433 41.8514 27.2601 42.6707 27.5733L42.6519 31.712L46.8955 32.1572L47.7374 28.1045C48.6047 27.9684 49.4391 27.7212 50.2221 27.3711L53.1372 30.3124L56.4526 27.6256L54.1812 24.1642C54.6864 23.4713 55.1027 22.7088 55.4161 21.889L59.5547 21.904L60 17.6605L55.9474 16.8223C55.8111 15.9546 55.5643 15.1171 55.2138 14.3337L58.155 11.4224L55.4683 8.10695L52.0069 10.3746C51.3134 9.8691 50.5484 9.45325 49.728 9.1398L49.7466 5.0011L45.5072 4.55595ZM46.2106 14.4125C46.344 14.413 46.4792 14.417 46.6147 14.4312C48.7825 14.6589 50.3525 16.6004 50.1248 18.7682C49.897 20.936 47.9556 22.5098 45.7877 22.282C43.62 22.0542 42.0462 20.1128 42.274 17.945C42.4874 15.9127 44.2102 14.4056 46.2106 14.4125ZM15.7615 14.7605L15.1928 20.3961C14.0325 20.7054 12.9335 21.1622 11.9185 21.7506L7.53275 18.1659L3.40525 22.2933L6.99015 26.6828C6.40175 27.6982 5.94465 28.7963 5.63555 29.9569L0 30.522V36.3595L5.6355 36.9284C5.9446 38.0879 6.4022 39.1842 6.9901 40.1988L3.4052 44.5883L7.5327 48.7158L11.9221 45.131C12.9367 45.7189 14.0331 46.1764 15.1927 46.4856L15.7615 52.1211H21.599L22.1641 46.4856C23.3247 46.1764 24.423 45.7194 25.4383 45.131L29.8277 48.7158L33.9552 44.5883L30.3703 40.2026C30.9587 39.1875 31.4157 38.0886 31.725 36.9284L37.3605 36.3595V30.522L31.725 29.9569C31.4157 28.7956 30.9593 27.6948 30.3704 26.6789L33.9552 22.2932L29.8278 18.1657L25.4421 21.7505C24.4263 21.1617 23.3253 20.7052 22.164 20.3958L21.599 14.7604H15.7615V14.7605ZM18.6803 28.041C21.6627 28.041 24.0801 30.4584 24.0801 33.4408C24.0801 36.4231 21.6627 38.8405 18.6803 38.8405C15.6979 38.8405 13.2805 36.4231 13.2805 33.4408C13.2805 30.4584 15.6979 28.041 18.6803 28.041ZM43.464 35.2519L42.869 38.2156C42.2596 38.3153 41.6753 38.4983 41.1251 38.7544L39.0745 36.6027L36.7469 38.5673L38.341 41.1007C37.9859 41.6078 37.693 42.1661 37.4728 42.766L34.5654 42.7509L34.251 45.8569L37.0987 46.4743C37.1943 47.1082 37.3692 47.7169 37.6151 48.2892L35.5496 50.4222L37.4356 52.8471L39.8716 51.1856C40.3584 51.5549 40.8937 51.8583 41.4695 52.0875L41.4582 55.1185L44.4407 55.444L45.0319 52.4766C45.6413 52.377 46.2253 52.1976 46.7756 51.9415L48.8263 54.0932L51.1576 52.1286L49.5597 49.5952C49.9149 49.0882 50.2077 48.5296 50.4279 47.9299L53.3393 47.9412L53.6498 44.8391L50.8022 44.2216C50.7065 43.5868 50.5321 42.976 50.2858 42.403L52.3513 40.2737L50.4654 37.8451L48.0331 39.5065C47.5458 39.1367 47.0082 38.8341 46.4315 38.6047L46.4465 35.5775L43.464 35.2519ZM43.9579 42.4591C44.0516 42.4596 44.1471 42.4638 44.2423 42.4742C45.766 42.6408 46.8684 44.0614 46.7083 45.6474C46.5483 47.2334 45.1859 48.3848 43.6622 48.2182C42.1386 48.0516 41.0324 46.6309 41.1925 45.0449C41.3425 43.558 42.552 42.454 43.9579 42.4591Z" fill="#5F5AD9"/>
</g>
<defs>
<clipPath id="clip0_4_2">
<rect width="60" height="60" fill="white"/>
</clipPath>
</defs>
</svg>
