<svg width="89" height="89" viewBox="0 0 89 89" fill="none" xmlns="http://www.w3.org/2000/svg">
<g clip-path="url(#clip0_1_94)">
<path d="M81.8226 16.6208H80.3871V13.7498H88.5679L66.0323 0.605057L43.4966 13.7498H51.6774V16.6208H7.17742C3.21979 16.6208 0 19.8405 0 23.7982V69.7337C0 73.6913 3.21979 76.9111 7.17742 76.9111H28.7097V85.524H21.5323V88.3949H67.4677V85.524H60.2903V76.9111H81.8226C85.7802 76.9111 89 73.6913 89 69.7337V23.7982C89 19.8405 85.7802 16.6208 81.8226 16.6208ZM57.4194 85.524H31.5806V76.9111H57.4194V85.524ZM86.129 69.7337C86.129 72.1079 84.1969 74.0401 81.8226 74.0401H7.17742C4.80313 74.0401 2.87097 72.1079 2.87097 69.7337V68.2982H86.129V69.7337ZM86.129 65.4272H2.87097V23.7982C2.87097 21.4239 4.80313 19.4917 7.17742 19.4917H51.6774V39.5885H54.5484V10.8788H54.1163L66.0323 3.92677L77.9482 10.8788H77.5161V25.2337H80.3871V19.4917H81.8226C84.1969 19.4917 86.129 21.4239 86.129 23.7982V65.4272Z" fill="#5F5AD9"/>
<path d="M27.2742 22.3627C16.1923 22.3627 7.17742 31.3775 7.17742 42.4595C7.17742 53.5414 16.1923 62.5562 27.2742 62.5562C38.3561 62.5562 47.371 53.5414 47.371 42.4595C47.371 31.3775 38.3561 22.3627 27.2742 22.3627ZM22.962 25.8021C21.4576 27.4113 19.7365 29.6033 18.3527 32.2891C16.7679 31.6933 15.5894 31.0459 14.8372 30.5722C17.0191 28.2912 19.8154 26.6175 22.962 25.8021ZM13.0098 32.8144C13.8725 33.3872 15.2721 34.1939 17.1914 34.9303C16.498 36.7864 16.0186 38.8234 15.865 41.024H10.1216C10.3728 38.0008 11.3949 35.1959 13.0098 32.8144ZM13.0084 52.1045C11.3949 49.7244 10.3728 46.9181 10.1216 43.8949H15.865C16.0171 46.0955 16.498 48.1325 17.1899 49.9886C15.2707 50.7235 13.8711 51.5317 13.0084 52.1045ZM14.8372 54.3467C15.5894 53.873 16.7679 53.227 18.3527 52.6299C19.7365 55.3157 21.4562 57.5076 22.962 59.1168C19.8154 58.3015 17.0191 56.6277 14.8372 54.3467ZM25.8387 57.9412C24.4276 56.5373 22.6261 54.43 21.1748 51.7758C22.5486 51.4485 24.1018 51.2016 25.8387 51.1126V57.9412ZM25.8387 48.2416C23.6123 48.3435 21.6471 48.6737 19.9432 49.1158C19.3288 47.5152 18.8938 45.7697 18.7402 43.8949H25.8387V48.2416ZM25.8387 41.024H18.7402C18.8938 39.1507 19.3317 37.4051 19.9489 35.8046C21.6514 36.2453 23.6137 36.5754 25.8387 36.6773V41.024ZM25.8387 33.8064C24.1046 33.7174 22.5543 33.4719 21.1834 33.146C22.6333 30.4976 24.4305 28.3917 25.8387 26.9864V33.8064ZM39.7112 30.5722C38.959 31.0459 37.7805 31.6919 36.1957 32.2891C34.8119 29.6033 33.0922 27.4113 31.5864 25.8021C34.7315 26.6175 37.5293 28.2912 39.7112 30.5722ZM28.7097 26.9778C30.1208 28.3817 31.9223 30.489 33.3736 33.1432C31.9998 33.4705 30.4466 33.7174 28.7097 33.8064V26.9778ZM28.7097 36.6773C30.9361 36.5754 32.9013 36.2453 34.6052 35.8031C35.2196 37.4037 35.656 39.1492 35.8081 41.024H28.7097V36.6773ZM28.7097 43.8949H35.8081C35.6545 45.7683 35.2167 47.5138 34.5995 49.1144C32.897 48.6722 30.9347 48.3435 28.7097 48.2416V43.8949ZM28.7097 51.1126C30.4437 51.2016 31.9941 51.447 33.365 51.7729C31.9151 54.4214 30.1179 56.5272 28.7097 57.9325V51.1126ZM31.5864 59.1168C33.0908 57.5076 34.8119 55.3157 36.1957 52.6299C37.7805 53.2256 38.959 53.873 39.7112 54.3467C37.5293 56.6277 34.7315 58.3015 31.5864 59.1168ZM41.54 52.103C40.6773 51.5303 39.2791 50.7235 37.3585 49.9871C38.0504 48.1325 38.5298 46.0955 38.6834 43.8949H44.4282C44.177 46.9181 43.155 49.7244 41.54 52.103ZM44.4282 41.024H38.6834C38.5313 38.8234 38.0504 36.7864 37.3585 34.9303C39.2777 34.1954 40.6773 33.3872 41.54 32.8144C43.155 35.1945 44.177 38.0008 44.4282 41.024Z" fill="#5F5AD9"/>
<path d="M78.9516 33.8466C76.5773 33.8466 74.6452 35.7787 74.6452 38.153C74.6452 38.9641 74.8834 39.7148 75.2753 40.3622L71.7842 45.5974C71.3306 45.4352 70.8483 45.3304 70.3387 45.3304C69.5693 45.3304 68.8573 45.5501 68.2314 45.9046L65.7265 44.0256C65.9189 43.5389 66.0323 43.0136 66.0323 42.4595C66.0323 40.0852 64.1001 38.153 61.7258 38.153C59.3515 38.153 57.4194 40.0852 57.4194 42.4595C57.4194 43.2045 57.6275 43.8949 57.9605 44.5079L54.745 48.5272C54.2412 48.3191 53.6914 48.2014 53.1129 48.2014C50.7386 48.2014 48.8064 50.1336 48.8064 52.5078C48.8064 54.8821 50.7386 56.8143 53.1129 56.8143C55.4872 56.8143 57.4194 54.8821 57.4194 52.5078C57.4194 51.7628 57.2126 51.0724 56.8782 50.4594L60.0937 46.4401C60.5975 46.6468 61.1473 46.7659 61.7258 46.7659C62.4952 46.7659 63.2072 46.5463 63.8331 46.1917L66.338 48.0708C66.1457 48.5574 66.0323 49.0828 66.0323 49.6369C66.0323 52.0112 67.9644 53.9433 70.3387 53.9433C72.713 53.9433 74.6452 52.0112 74.6452 49.6369C74.6452 48.8258 74.4069 48.0751 74.015 47.4277L77.5046 42.1925C77.9597 42.3547 78.442 42.4595 78.9516 42.4595C81.3259 42.4595 83.2581 40.5273 83.2581 38.153C83.2581 35.7787 81.3259 33.8466 78.9516 33.8466ZM53.1129 53.9433C52.3205 53.9433 51.6774 53.3002 51.6774 52.5078C51.6774 51.7155 52.3205 51.0724 53.1129 51.0724C53.9053 51.0724 54.5484 51.7155 54.5484 52.5078C54.5484 53.3002 53.9053 53.9433 53.1129 53.9433ZM61.7258 43.8949C60.9334 43.8949 60.2903 43.2518 60.2903 42.4595C60.2903 41.6671 60.9334 41.024 61.7258 41.024C62.5182 41.024 63.1613 41.6671 63.1613 42.4595C63.1613 43.2518 62.5182 43.8949 61.7258 43.8949ZM70.3387 51.0724C69.5463 51.0724 68.9032 50.4293 68.9032 49.6369C68.9032 48.8445 69.5463 48.2014 70.3387 48.2014C71.1311 48.2014 71.7742 48.8445 71.7742 49.6369C71.7742 50.4293 71.1311 51.0724 70.3387 51.0724ZM78.9516 39.5885C78.1592 39.5885 77.5161 38.9454 77.5161 38.153C77.5161 37.3606 78.1592 36.7175 78.9516 36.7175C79.744 36.7175 80.3871 37.3606 80.3871 38.153C80.3871 38.9454 79.744 39.5885 78.9516 39.5885Z" fill="#5F5AD9"/>
<path d="M54.5484 42.4595H51.6774V45.3304H54.5484V42.4595Z" fill="#5F5AD9"/>
<path d="M80.3871 28.1046H77.5161V30.9756H80.3871V28.1046Z" fill="#5F5AD9"/>
<path d="M63.1613 32.4111H60.2903V35.282H63.1613V32.4111Z" fill="#5F5AD9"/>
<path d="M71.7742 39.5885H68.9032V42.4595H71.7742V39.5885Z" fill="#5F5AD9"/>
<path d="M63.1613 26.6691H60.2903V29.5401H63.1613V26.6691Z" fill="#5F5AD9"/>
<path d="M71.7742 33.8466H68.9032V36.7175H71.7742V33.8466Z" fill="#5F5AD9"/>
<path d="M63.1613 10.8788H60.2903V23.7982H63.1613V10.8788Z" fill="#5F5AD9"/>
<path d="M71.7742 10.8788H68.9032V30.9756H71.7742V10.8788Z" fill="#5F5AD9"/>
</g>
<defs>
<clipPath id="clip0_1_94">
<rect width="89" height="89" fill="white"/>
</clipPath>
</defs>
</svg>
