<svg width="61" height="61" viewBox="0 0 61 61" fill="none" xmlns="http://www.w3.org/2000/svg">
<g clip-path="url(#clip0_1_2)">
<path d="M48.2254 43.2988C45.4754 43.2988 43.2254 41.0488 43.2254 38.2988V35.7988C43.2254 33.0488 45.4754 30.7988 48.2254 30.7988C50.9754 30.7988 53.2254 33.0488 53.2254 35.7988V38.2988C53.2254 41.0488 50.9754 43.2988 48.2254 43.2988ZM43.2254 60.7813L53.2254 60.7988C54.6004 60.7988 55.7254 59.6738 55.7254 58.2988V53.2988C55.7254 49.1738 52.3504 45.7988 48.2254 45.7988C44.1004 45.7988 40.7254 49.1738 40.7254 53.2988V58.2988C40.7254 59.6788 41.8454 60.7813 43.2254 60.7813Z" fill="#5F5AD9"/>
<path d="M50.7254 5.79878V23.2988C50.7254 24.6738 49.6004 25.7988 48.2254 25.7988C46.8504 25.7988 45.7254 24.6738 45.7254 23.2988V7.04878C45.7254 6.34878 45.1754 5.79878 44.4754 5.79878H11.9754C11.2754 5.79878 10.7254 6.34878 10.7254 7.04878V54.5488C10.7254 55.2488 11.2754 55.7988 11.9754 55.7988H33.2254C34.6004 55.7988 35.7254 56.9238 35.7254 58.2988C35.7254 59.6738 34.6004 60.7988 33.2254 60.7988H10.7254C7.97537 60.7988 5.72537 58.5488 5.72537 55.7988V5.79878C5.72537 3.04878 7.97537 0.798777 10.7254 0.798777H45.7254C48.4754 0.798777 50.7254 3.04878 50.7254 5.79878Z" fill="#5F5AD9"/>
<path d="M27.4929 11.5313C26.5179 10.5563 24.9354 10.5563 23.9579 11.5313L20.7254 14.7638L19.9929 14.0313C19.0179 13.0563 17.4354 13.0563 16.4579 14.0313C15.4804 15.0063 15.4829 16.5888 16.4579 17.5663L18.9579 20.0663C19.4454 20.5538 20.0829 20.7988 20.7254 20.7988C21.3679 20.7988 22.0054 20.5538 22.4929 20.0663L27.4929 15.0663C28.4679 14.0913 28.4679 12.5088 27.4929 11.5313ZM27.4929 26.5313C26.5179 25.5563 24.9354 25.5563 23.9579 26.5313L20.7254 29.7638L19.9929 29.0313C19.0179 28.0563 17.4354 28.0563 16.4579 29.0313C15.4804 30.0063 15.4829 31.5888 16.4579 32.5663L18.9579 35.0663C19.4454 35.5538 20.0829 35.7988 20.7254 35.7988C21.3679 35.7988 22.0054 35.5538 22.4929 35.0663L27.4929 30.0663C28.4679 29.0913 28.4679 27.5088 27.4929 26.5313ZM27.4929 41.5313C26.5179 40.5563 24.9354 40.5563 23.9579 41.5313L20.7254 44.7638L19.9929 44.0313C19.0179 43.0563 17.4354 43.0563 16.4579 44.0313C15.4804 45.0063 15.4829 46.5888 16.4579 47.5663L18.9579 50.0663C19.4454 50.5538 20.0829 50.7988 20.7254 50.7988C21.3679 50.7988 22.0054 50.5538 22.4929 50.0663L27.4929 45.0663C28.4679 44.0913 28.4679 42.5088 27.4929 41.5313Z" fill="#5F5AD9"/>
</g>
<defs>
<clipPath id="clip0_1_2">
<rect width="60" height="60" fill="white" transform="translate(0.725372 0.798777)"/>
</clipPath>
</defs>
</svg>
