<svg width="57" height="57" viewBox="0 0 57 57" fill="none" xmlns="http://www.w3.org/2000/svg">
<g clip-path="url(#clip0_1_9)">
<path d="M55.8367 37.8061H55.2551V5.23469C55.2551 4.59222 54.7343 4.07143 54.0918 4.07143H34.898V1.16327C34.898 0.520794 34.3772 0 33.7347 0H23.2653C22.6228 0 22.102 0.520794 22.102 1.16327V4.07143H2.90816C2.26569 4.07143 1.7449 4.59222 1.7449 5.23469V37.8061H1.16327C0.520794 37.8061 0 38.3269 0 38.9694V43.0408C0 43.6833 0.520794 44.2041 1.16327 44.2041H18.8842L12.9617 54.075L14.9566 55.272L21.5974 44.2041H27.3367V57H29.6633V44.2041H35.4026L42.0433 55.272L44.0382 54.075L38.1158 44.2041H55.8367C56.4792 44.2041 57 43.6833 57 43.0408V38.9694C57 38.3269 56.4792 37.8061 55.8367 37.8061ZM24.4286 2.32653H32.5714V4.07143H24.4286V2.32653ZM4.07143 6.39796H52.9286V37.8061H4.07143V6.39796ZM54.6735 41.8776H2.32653V40.1327H54.6735V41.8776Z" fill="#5F5AD9"/>
<path d="M19.7755 10.4694C13.3613 10.4694 8.14285 15.6878 8.14285 22.102C8.14285 28.5163 13.3613 33.7347 19.7755 33.7347C26.1898 33.7347 31.4082 28.5163 31.4082 22.102C31.4082 15.6878 26.1898 10.4694 19.7755 10.4694ZM19.7755 31.4082C14.6441 31.4082 10.4694 27.2334 10.4694 22.102C10.4694 17.3648 14.0282 13.4458 18.6122 12.8712V22.102C18.6122 22.7445 19.133 23.2653 19.7755 23.2653H29.0064C28.4317 27.8494 24.5128 31.4082 19.7755 31.4082ZM20.9388 20.9388V12.8712C25.1414 13.398 28.4795 16.7361 29.0064 20.9388H20.9388Z" fill="#5F5AD9"/>
<path d="M48.2755 15.1225H40.1327V17.449H48.2755V15.1225Z" fill="#5F5AD9"/>
<path d="M48.2755 18.6122H40.1327V20.9388H48.2755V18.6122Z" fill="#5F5AD9"/>
<path d="M48.2755 22.102H40.1327V24.4286H48.2755V22.102Z" fill="#5F5AD9"/>
<path d="M45.3674 11.6327H40.1327V13.9592H45.3674V11.6327Z" fill="#5F5AD9"/>
<path d="M37.806 13.9591V11.6325H32.5713C32.2628 11.6325 31.9669 11.7551 31.7488 11.9733L30.0039 13.7182L31.6491 15.3634L33.0531 13.9591H37.806Z" fill="#5F5AD9"/>
<path d="M49.4388 27.3367H36.0612V29.6633H49.4388V27.3367Z" fill="#5F5AD9"/>
<path d="M49.4388 31.4082H32.5714V33.7347H49.4388V31.4082Z" fill="#5F5AD9"/>
</g>
<defs>
<clipPath id="clip0_1_9">
<rect width="57" height="57" fill="white"/>
</clipPath>
</defs>
</svg>
