<svg width="60" height="60" viewBox="0 0 60 60" fill="none" xmlns="http://www.w3.org/2000/svg">
<path d="M32.3625 16.1719C35.3759 16.1719 37.8187 13.729 37.8187 10.7156C37.8187 7.70222 35.3759 5.25937 32.3625 5.25937C29.3491 5.25937 26.9062 7.70222 26.9062 10.7156C26.9062 13.729 29.3491 16.1719 32.3625 16.1719Z" stroke="#5F5AD9" stroke-width="2.8125"/>
<path d="M50.2781 35.0813C53.2915 35.0813 55.7344 32.6384 55.7344 29.625C55.7344 26.6116 53.2915 24.1688 50.2781 24.1688C47.2647 24.1688 44.8219 26.6116 44.8219 29.625C44.8219 32.6384 47.2647 35.0813 50.2781 35.0813Z" stroke="#5F5AD9" stroke-width="2.8125"/>
<path d="M32.3625 52.8656C35.3759 52.8656 37.8187 50.4228 37.8187 47.4094C37.8187 44.396 35.3759 41.9531 32.3625 41.9531C29.3491 41.9531 26.9062 44.396 26.9062 47.4094C26.9062 50.4228 29.3491 52.8656 32.3625 52.8656Z" stroke="#5F5AD9" stroke-width="2.8125"/>
<path d="M14.2125 44.8594C17.2259 44.8594 19.6688 42.4165 19.6688 39.4031C19.6688 36.3897 17.2259 33.9469 14.2125 33.9469C11.1991 33.9469 8.75626 36.3897 8.75626 39.4031C8.75626 42.4165 11.1991 44.8594 14.2125 44.8594Z" stroke="#5F5AD9" stroke-width="2.8125"/>
<path d="M14.2125 23.5219C17.2259 23.5219 19.6688 21.079 19.6688 18.0656C19.6688 15.0522 17.2259 12.6094 14.2125 12.6094C11.1991 12.6094 8.75626 15.0522 8.75626 18.0656C8.75626 21.079 11.1991 23.5219 14.2125 23.5219Z" stroke="#5F5AD9" stroke-width="2.8125"/>
<path d="M32.3531 31.8469C34.7866 31.8469 36.7594 29.8741 36.7594 27.4406C36.7594 25.0071 34.7866 23.0344 32.3531 23.0344C29.9196 23.0344 27.9469 25.0071 27.9469 27.4406C27.9469 29.8741 29.9196 31.8469 32.3531 31.8469Z" stroke="#5F5AD9" stroke-width="2.8125"/>
<path d="M18.9094 15.2813L27.0938 12.1219" stroke="#5F5AD9" stroke-width="2.8125"/>
<path d="M36.1875 14.6156L46.3875 25.8" stroke="#5F5AD9" stroke-width="2.8125"/>
<path d="M46.9406 33.9375L36.2531 43.5844" stroke="#5F5AD9" stroke-width="2.8125"/>
<path d="M17.2125 22.6219L28.9781 43.1344" stroke="#5F5AD9" stroke-width="2.8125"/>
<path d="M19.0406 41.9438L26.9062 45.5906" stroke="#5F5AD9" stroke-width="2.8125"/>
<path d="M16.2563 34.3406L29.4094 15.3" stroke="#5F5AD9" stroke-width="2.8125"/>
<path d="M19.2375 20.2031L28.4438 25.4063" stroke="#5F5AD9" stroke-width="2.8125"/>
<path d="M36.7688 27.9375L44.8219 28.5469" stroke="#5F5AD9" stroke-width="2.8125"/>
<path d="M32.3531 31.8563L32.3625 41.9438" stroke="#5F5AD9" stroke-width="2.8125"/>
</svg>
