<svg width="55" height="56" viewBox="0 0 55 56" fill="none" xmlns="http://www.w3.org/2000/svg">
<path fill-rule="evenodd" clip-rule="evenodd" d="M31.3713 43.1491L28.9047 52.3572C28.7978 52.7547 28.9638 53.1756 29.3125 53.3941C29.6613 53.6125 30.1122 53.5778 30.4234 53.3088L33.9213 50.2797L35.4362 54.6513C35.5703 55.0366 35.9378 55.2916 36.3456 55.2822C36.7525 55.2719 37.1078 55 37.2222 54.6081L38.7906 49.2569L40.3394 54.6053C40.4528 54.9972 40.8072 55.2709 41.2159 55.2812C41.6237 55.2925 41.9922 55.0375 42.1263 54.6513L43.6412 50.2797L47.1391 53.3088C47.4503 53.5778 47.9012 53.6125 48.25 53.3941C48.5987 53.1756 48.7647 52.7547 48.6578 52.3572L46.1912 43.1491C47.9903 41.2919 49.0984 38.7616 49.0984 35.9734C49.0984 30.2791 44.4756 25.6562 38.7812 25.6562C33.0869 25.6562 28.4641 30.2791 28.4641 35.9734C28.4641 38.7616 29.5722 41.2919 31.3713 43.1491ZM32.9547 44.4859L31.5063 49.8906L33.7403 47.9566C33.9756 47.7531 34.2962 47.6791 34.5972 47.7597C34.8972 47.8403 35.1381 48.0644 35.2403 48.3587L36.2481 51.2659L37.7219 46.2362C35.965 46.0572 34.3384 45.4356 32.9547 44.4859ZM44.6078 44.4859C43.2316 45.4309 41.6134 46.0506 39.8678 46.2334L41.32 51.2509L42.3222 48.3587C42.4244 48.0644 42.6653 47.8403 42.9653 47.7597C43.2663 47.6791 43.5869 47.7531 43.8222 47.9566L46.0562 49.8906L44.6078 44.4859ZM0.8125 29.875V43.9375C0.8125 44.6838 1.10875 45.3991 1.63656 45.9259C2.16344 46.4537 2.87875 46.75 3.625 46.75C9.70281 46.75 28.4688 46.75 28.4688 46.75C28.9862 46.75 29.4062 46.33 29.4062 45.8125C29.4062 45.295 28.9862 44.875 28.4688 44.875C28.4688 44.875 9.70281 44.875 3.625 44.875C3.37656 44.875 3.1375 44.7766 2.96219 44.6003C2.78594 44.425 2.6875 44.1859 2.6875 43.9375V29.875C2.6875 29.3575 2.2675 28.9375 1.75 28.9375C1.2325 28.9375 0.8125 29.3575 0.8125 29.875ZM0.8125 3.625V26.125C0.8125 26.6425 1.2325 27.0625 1.75 27.0625C2.2675 27.0625 2.6875 26.6425 2.6875 26.125V9.25H30.8125C31.33 9.25 31.75 8.83 31.75 8.3125C31.75 7.795 31.33 7.375 30.8125 7.375H2.6875V3.625C2.6875 3.1075 3.1075 2.6875 3.625 2.6875H51.9062C52.4238 2.6875 52.8438 3.1075 52.8438 3.625V7.375H34.5625C34.045 7.375 33.625 7.795 33.625 8.3125C33.625 8.83 34.045 9.25 34.5625 9.25H52.8438V43.9375C52.8438 44.455 52.4238 44.875 51.9062 44.875H49.5625C49.045 44.875 48.625 45.295 48.625 45.8125C48.625 46.33 49.045 46.75 49.5625 46.75H51.9062C53.4597 46.75 54.7188 45.4909 54.7188 43.9375V3.625C54.7188 2.07156 53.4597 0.8125 51.9062 0.8125H3.625C2.07156 0.8125 0.8125 2.07156 0.8125 3.625ZM38.7812 27.5312C43.4406 27.5312 47.2234 31.3141 47.2234 35.9734C47.2234 40.6328 43.4406 44.4156 38.7812 44.4156C34.1219 44.4156 30.3391 40.6328 30.3391 35.9734C30.3391 31.3141 34.1219 27.5312 38.7812 27.5312ZM25.1875 40.1875V38.3125C25.1875 36.7591 23.9284 35.5 22.375 35.5H9.25C7.69656 35.5 6.4375 36.7591 6.4375 38.3125V40.1875C6.4375 41.7409 7.69656 43 9.25 43H22.375C23.9284 43 25.1875 41.7409 25.1875 40.1875ZM39.6006 28.8184C39.4356 28.5213 39.1216 28.3366 38.7812 28.3366C38.4409 28.3366 38.1269 28.5213 37.9619 28.8184L36.1066 32.155L32.3594 32.8891C32.0256 32.9547 31.7537 33.1956 31.6487 33.5191C31.5428 33.8434 31.6216 34.1978 31.8531 34.4472L34.4538 37.2428L33.9934 41.0331C33.9522 41.3706 34.0975 41.7044 34.3731 41.905C34.6478 42.1047 35.0106 42.1394 35.3191 41.9959L38.7812 40.3872L42.2434 41.9959C42.5519 42.1394 42.9147 42.1047 43.1894 41.905C43.465 41.7044 43.6103 41.3706 43.5691 41.0331L43.1087 37.2428L45.7094 34.4472C45.9409 34.1978 46.0197 33.8434 45.9137 33.5191C45.8088 33.1956 45.5369 32.9547 45.2031 32.8891L41.4559 32.155L39.6006 28.8184ZM23.3125 38.3125V40.1875C23.3125 40.705 22.8925 41.125 22.375 41.125H9.25C8.7325 41.125 8.3125 40.705 8.3125 40.1875V38.3125C8.3125 37.795 8.7325 37.375 9.25 37.375H22.375C22.8925 37.375 23.3125 37.795 23.3125 38.3125ZM38.7812 31.2034L40.0291 33.4478C40.1631 33.6888 40.3975 33.8584 40.6684 33.9119L43.1884 34.405L41.4391 36.2856C41.2516 36.4872 41.1625 36.7628 41.1953 37.0366L41.5047 39.5856L39.1759 38.5037C38.9256 38.3875 38.6369 38.3875 38.3866 38.5037L36.0578 39.5856L36.3672 37.0366C36.4 36.7628 36.3109 36.4872 36.1234 36.2856L34.3741 34.405L36.8941 33.9119C37.165 33.8584 37.3994 33.6888 37.5334 33.4478L38.7812 31.2034ZM7.375 32.6875H24.7188C25.2362 32.6875 25.6562 32.2675 25.6562 31.75C25.6562 31.2325 25.2362 30.8125 24.7188 30.8125H7.375C6.8575 30.8125 6.4375 31.2325 6.4375 31.75C6.4375 32.2675 6.8575 32.6875 7.375 32.6875ZM7.375 28.9375H27.0625C27.58 28.9375 28 28.5175 28 28C28 27.4825 27.58 27.0625 27.0625 27.0625H7.375C6.8575 27.0625 6.4375 27.4825 6.4375 28C6.4375 28.5175 6.8575 28.9375 7.375 28.9375ZM7.375 25.1875H28.9375C29.455 25.1875 29.875 24.7675 29.875 24.25C29.875 23.7325 29.455 23.3125 28.9375 23.3125H7.375C6.8575 23.3125 6.4375 23.7325 6.4375 24.25C6.4375 24.7675 6.8575 25.1875 7.375 25.1875ZM7.375 21.4375H47.6875C48.205 21.4375 48.625 21.0175 48.625 20.5C48.625 19.9825 48.205 19.5625 47.6875 19.5625H7.375C6.8575 19.5625 6.4375 19.9825 6.4375 20.5C6.4375 21.0175 6.8575 21.4375 7.375 21.4375ZM7.375 17.6875H47.6875C48.205 17.6875 48.625 17.2675 48.625 16.75C48.625 16.2325 48.205 15.8125 47.6875 15.8125H7.375C6.8575 15.8125 6.4375 16.2325 6.4375 16.75C6.4375 17.2675 6.8575 17.6875 7.375 17.6875ZM15.8125 13.9375H39.7188C40.2363 13.9375 40.6562 13.5175 40.6562 13C40.6562 12.4825 40.2363 12.0625 39.7188 12.0625H15.8125C15.295 12.0625 14.875 12.4825 14.875 13C14.875 13.5175 15.295 13.9375 15.8125 13.9375ZM5.5 4.09375C6.0175 4.09375 6.4375 4.51375 6.4375 5.03125C6.4375 5.54875 6.0175 5.96875 5.5 5.96875C4.9825 5.96875 4.5625 5.54875 4.5625 5.03125C4.5625 4.51375 4.9825 4.09375 5.5 4.09375ZM9.25 4.09375C9.7675 4.09375 10.1875 4.51375 10.1875 5.03125C10.1875 5.54875 9.7675 5.96875 9.25 5.96875C8.7325 5.96875 8.3125 5.54875 8.3125 5.03125C8.3125 4.51375 8.7325 4.09375 9.25 4.09375ZM13 4.09375C13.5175 4.09375 13.9375 4.51375 13.9375 5.03125C13.9375 5.54875 13.5175 5.96875 13 5.96875C12.4825 5.96875 12.0625 5.54875 12.0625 5.03125C12.0625 4.51375 12.4825 4.09375 13 4.09375Z" fill="#5F5AD9"/>
</svg>
