<svg width="60" height="60" viewBox="0 0 60 60" fill="none" xmlns="http://www.w3.org/2000/svg">
<path d="M14.7894 46.8322C17.8864 46.6685 19.8446 45.6571 20.6109 43.8215C20.9381 43.0423 20.9718 42.2098 20.8666 41.4016C21.5791 41.777 22.4915 42.1273 23.4336 42.1273C23.6172 42.1273 23.7993 42.1153 23.9829 42.0876C24.9372 41.943 25.7458 41.3931 26.3184 40.5055C26.5807 40.0951 26.4626 39.549 26.0538 39.285C25.645 39.0271 25.0972 39.1439 24.8352 39.5509C24.5316 40.023 24.1776 40.2712 23.7218 40.3436C22.5813 40.5244 21.101 39.537 20.6225 39.1439C20.4676 39.0129 20.2821 38.9631 20.0924 38.9581C19.7608 38.296 19.3888 37.7392 19.0852 37.3965C15.5771 33.4717 15.4291 30.2443 15.4253 30.1958C15.4143 29.7113 15.0385 29.3898 14.5248 29.3362C14.0401 29.3463 13.6527 29.7469 13.6605 30.2354C13.6643 30.392 13.7805 34.1114 17.7686 38.5719C18.5097 39.4079 19.6307 41.6019 18.9841 43.1478C18.3844 44.5834 16.3229 44.9903 14.6996 45.0763C14.2142 45.104 13.8401 45.5173 13.8649 46.0001C13.8901 46.4744 14.276 46.8395 14.7437 46.8395L14.7894 46.8322Z" fill="#5F5AD9"/>
<path d="M14.5635 28.2074C14.5585 28.2008 15.7528 28.0272 16.9922 30.9624C17.0807 31.1762 17.9012 33.0635 19.5866 33.5634C19.8071 33.6289 20.077 33.6786 20.3841 33.6786C20.946 33.6786 21.6336 33.5139 22.3961 32.9841C22.8002 32.7082 22.8991 32.1567 22.62 31.7589C22.3451 31.3536 21.7929 31.2578 21.3951 31.5344C20.9069 31.8707 20.4758 31.9844 20.0921 31.8707C19.3428 31.6534 18.7816 30.6537 18.6244 30.283C16.7308 25.784 14.3235 26.4341 14.0564 26.5182C13.5947 26.6725 13.3204 27.1784 13.4741 27.643C13.6256 28.105 14.0961 28.3557 14.5635 28.2074Z" fill="#5F5AD9"/>
<path d="M22.9167 23.1352C22.7331 23.5881 22.947 24.1031 23.3949 24.2883L23.7322 24.3547C24.0764 24.3547 24.4068 24.1506 24.548 23.8101C27.0863 17.679 24.8831 9.10188 24.7911 8.73998C24.6676 8.26722 24.1911 7.97398 23.7161 8.11162C23.243 8.2332 22.9608 8.71636 23.0881 9.18786C23.1051 9.27227 25.2302 17.5477 22.9167 23.1352Z" fill="#5F5AD9"/>
<path d="M22.0307 46.3069C21.5526 46.2347 21.0991 46.5585 21.0235 47.0407C20.9476 47.5233 21.278 47.9749 21.758 48.0508C21.7948 48.0543 25.0824 48.6077 25.9458 51.8978C26.0494 52.294 26.4075 52.5561 26.7981 52.5561L27.022 52.5249C27.4951 52.4008 27.7735 51.9167 27.6488 51.4496C26.4982 47.0599 22.2125 46.3361 22.0307 46.3069Z" fill="#5F5AD9"/>
<path d="M23.5416 54.083C21.3051 54.5968 17.802 50.3331 16.11 47.5374C15.8555 47.1201 15.316 46.9894 14.8974 47.2411C14.481 47.4943 14.3465 48.0322 14.5976 48.4527C15.0807 49.254 19.2197 55.8862 23.1835 55.8862C23.432 55.8862 23.6755 55.8588 23.9212 55.8072C24.3999 55.7001 24.696 55.2295 24.5936 54.7527C24.4897 54.2761 24.0197 53.9816 23.5416 54.083Z" fill="#5F5AD9"/>
<path d="M14.3364 42.9512C14.7705 42.9512 15.1497 42.629 15.2098 42.1859C15.2709 41.7024 14.9342 41.2586 14.4508 41.1934C12.5276 40.938 11.5673 37.5187 11.337 36.1039C11.7377 29.9252 9.53542 27.6452 9.43905 27.5494C9.10172 27.2111 8.55305 27.2089 8.20816 27.5441C7.86264 27.8779 7.85382 28.436 8.17981 28.7866C8.19808 28.8064 9.93638 30.7299 9.56944 36.0831L9.57763 36.2727C9.61606 36.5244 10.5351 42.453 14.2168 42.9408L14.3364 42.9512Z" fill="#5F5AD9"/>
<path d="M18.2278 27.2036C18.03 27.6499 18.2313 28.1705 18.676 28.3689L19.0342 28.4445C19.3693 28.4445 19.6943 28.2499 19.8395 27.9204C20.7586 25.8495 19.7945 22.2158 19.6802 21.8063L19.5904 21.5925C17.2836 17.6957 20.4008 13.7731 20.5321 13.6084C20.7107 13.3898 20.7529 13.1149 20.6969 12.8588C20.997 13.2062 21.3218 13.5558 21.7007 13.9051C21.872 14.0616 22.0859 14.1404 22.3013 14.1404C22.541 14.1404 22.7753 14.0446 22.9485 13.8575C23.2802 13.4991 23.2582 12.9397 22.9029 12.6096C21.3 11.1293 20.5419 9.73149 20.7006 8.5699C20.8975 7.12484 22.4581 6.30278 22.4991 6.28104C22.9315 6.06214 23.1076 5.533 22.8912 5.09866C22.672 4.66433 22.1422 4.48417 21.706 4.70307C21.6081 4.7522 19.2956 5.93364 18.9573 8.30879C18.7737 9.58661 19.2052 10.912 20.2169 12.2676C19.8603 12.1013 19.4294 12.1737 19.1664 12.4934C19.0014 12.6944 15.1891 17.4563 18.0096 22.3855C18.2631 23.3619 18.7674 25.9859 18.2278 27.2036Z" fill="#5F5AD9"/>
<path d="M26.9672 26.9192C26.6604 28.0439 24.1914 28.0741 23.0389 27.9129C22.5696 27.8622 22.1101 28.1809 22.0411 28.6631C21.9766 29.1453 22.3101 29.5916 22.7936 29.6603C22.9523 29.6827 23.4928 29.752 24.1914 29.752C25.7628 29.752 28.1237 29.4027 28.6727 27.3834C28.7975 26.9119 28.5241 26.4288 28.0532 26.2996C27.583 26.1784 27.0979 26.4521 26.9672 26.9192Z" fill="#5F5AD9"/>
<path d="M54.4823 29.0883C55.8058 20.9455 52.4586 18.2242 51.2914 17.5395C51.743 12.2096 48.7423 9.93433 47.766 9.34503C47.6793 8.36769 47.4031 7.44988 46.9121 6.60294C45.0267 3.36793 40.8074 2.32571 40.2083 2.19059C38.82 0.744579 37.3396 0 35.7799 0L35.6977 0.00157483C33.0186 0.04567 30.9729 2.25767 30.005 3.53832C29.0359 2.25767 26.9902 0.04567 24.3111 0.00157483L24.2279 0C22.6704 0 21.1888 0.744579 19.802 2.19059C19.2017 2.32571 14.984 3.36761 13.0952 6.60294C12.6048 7.44957 12.3238 8.36769 12.2429 9.34503C11.2665 9.93433 8.26486 12.2093 8.71683 17.5376C7.55524 18.2226 4.20212 20.9427 5.52592 29.0868C5.1993 29.6959 3.14131 33.7583 4.23897 37.6535C4.49472 38.5515 4.92055 39.3527 5.46261 40.0819C5.36024 41.1008 5.23237 45.9144 11.1436 50.3365C13.3988 52.0263 15.5239 54.4903 17.4584 57.6529L17.6486 57.8749C17.7699 57.9782 20.2783 60 23.2818 60C23.8465 60 24.4305 59.9279 25.0179 59.7534C27.1042 59.154 28.7663 57.4585 29.9956 54.7313C31.2227 57.4585 32.8876 59.154 34.9727 59.7534C35.5623 59.9279 36.145 60 36.7085 60C39.7126 59.9984 42.22 57.9782 42.3448 57.8749L42.5347 57.6529C44.4686 54.4922 46.5911 52.0292 48.8497 50.3365C54.75 45.9207 54.6281 41.109 54.5261 40.0835C55.076 39.3546 55.4999 38.5515 55.7516 37.6535C56.8675 33.764 54.813 29.7044 54.4823 29.0883ZM28.9808 52.5492C27.92 55.6582 26.4327 57.5111 24.5479 58.0573C22.0326 58.7953 19.437 57.0009 18.883 56.5889C16.8565 53.3038 14.6083 50.7243 12.2067 48.923C8.65163 46.2615 7.60217 43.5301 7.30894 41.8375C7.59241 42.0394 7.86296 42.2463 8.18297 42.4271L8.61289 42.5358C8.92187 42.5358 9.22172 42.3742 9.38361 42.0841C9.62425 41.6599 9.47243 41.1222 9.04692 40.8828C4.71425 38.4614 5.49221 34.0509 6.36435 31.5917L6.77381 31.7051L6.97161 31.683C7.44815 31.574 7.74296 31.0988 7.63335 30.6228C5.97065 23.4215 7.87997 20.5181 9.02959 19.4772C9.24881 20.4863 9.56724 21.572 10.0372 22.7667C10.1748 23.1147 10.5087 23.3241 10.8577 23.3241L11.1843 23.263C11.6381 23.0829 11.8608 22.5692 11.6807 22.1197C9.09983 15.5996 11.0747 12.587 12.3761 11.415C12.4548 11.8389 12.5342 12.2629 12.6791 12.7041C12.7975 13.0764 13.1452 13.3142 13.5194 13.3142L13.789 13.272C14.2552 13.1221 14.5059 12.6238 14.3547 12.1602C13.7752 10.3668 13.8646 8.79762 14.6221 7.49051C15.4036 6.13836 16.7796 5.24733 17.9715 4.69141C17.8956 5.04039 18.0326 5.41268 18.3538 5.61615C18.7601 5.87537 19.3088 5.75915 19.5699 5.34654C21.0824 2.96383 22.6531 1.75814 24.2311 1.75814L24.2768 1.75971C26.6018 1.79499 28.4885 4.39156 28.9767 5.12921L28.9808 52.5492ZM47.8069 48.9233C45.4024 50.7261 43.1567 53.3057 41.1303 56.5927C40.5778 57.0062 37.9875 58.7924 35.4747 58.0614C33.5909 57.5165 32.0964 55.6658 31.0331 52.5545V5.13236C31.7333 4.04668 33.6183 1.80192 35.7299 1.76822L35.7758 1.76633C37.3567 1.76633 38.9214 2.97548 40.4402 5.35473C40.7022 5.76765 41.2521 5.88545 41.6566 5.62434C41.9775 5.42182 42.1123 5.04858 42.0392 4.6996C43.2336 5.25709 44.604 6.14624 45.3864 7.49681C46.1448 8.80329 46.233 10.375 45.6538 12.1668C45.5036 12.6311 45.7571 13.1284 46.2188 13.2786L46.4894 13.3208C46.8639 13.3208 47.2081 13.0827 47.3288 12.7104C47.4733 12.2692 47.5527 11.8437 47.6337 11.4203C48.9316 12.5942 50.9099 15.6043 48.3304 22.1257C48.1512 22.5774 48.3732 23.0908 48.8264 23.2693L49.1509 23.3314C49.502 23.3314 49.8331 23.1213 49.9713 22.7736C50.4463 21.5799 50.76 20.4951 50.9805 19.4866C52.1285 20.5276 54.0379 23.4293 52.3774 30.6291C52.2681 31.1047 52.5629 31.5769 53.0394 31.689L53.2369 31.7114L53.6319 31.6059C54.1424 33.0588 54.6278 35.1791 54.0659 37.1748C53.6281 38.7364 52.5837 39.9858 50.9673 40.8869C50.5436 41.1251 50.3896 41.663 50.6293 42.0901C50.7915 42.3796 51.0939 42.5418 51.4013 42.5418L51.8322 42.4312C52.1512 42.252 52.4199 42.0438 52.7011 41.8438C52.4133 43.5336 51.3588 46.2656 47.8069 48.9233Z" fill="#5F5AD9"/>
<path d="M37.5204 6.28324C37.5362 6.29175 39.105 7.11286 39.3113 8.55981C39.482 9.72235 38.7186 11.1246 37.1129 12.61C36.7573 12.9419 36.7333 13.4994 37.0659 13.8578C37.2426 14.0449 37.4748 14.1407 37.7148 14.1407C37.928 14.1407 38.14 14.0619 38.3145 13.9054C38.6912 13.5549 39.0153 13.2062 39.3186 12.8607C39.2616 13.1164 39.3012 13.3917 39.4836 13.6103C39.517 13.6493 42.7451 17.6768 40.4247 21.5943L40.335 21.8063C40.2247 22.2123 39.2581 25.8495 40.1765 27.9204C40.3214 28.2496 40.6452 28.4445 40.9835 28.4445L41.34 28.3689C41.7848 28.1705 41.9866 27.648 41.7882 27.2036C41.3013 26.1075 41.6556 23.716 42.0071 22.3871C44.8267 17.4563 41.0115 12.6959 40.8455 12.495C40.5895 12.1772 40.1545 12.1029 39.7983 12.2692C40.8118 10.9139 41.2427 9.58818 41.0594 8.31036C40.7236 5.9352 38.4086 4.75408 38.3104 4.70495C37.8748 4.48794 37.3453 4.66589 37.1261 5.10055C36.9088 5.53488 37.0845 6.06403 37.5204 6.28324Z" fill="#5F5AD9"/>
<path d="M45.3177 45.0713C43.6941 44.985 41.6317 44.5831 41.0329 43.1424C40.3888 41.5947 41.511 39.4006 42.2496 38.5685C46.2393 34.1098 46.3511 30.3854 46.3549 30.2301C46.3653 29.7447 45.9791 29.346 45.4963 29.3337C44.999 29.3088 44.6072 29.7063 44.5902 30.1888C44.5902 30.2232 44.4494 33.4582 40.9328 37.393C40.6257 37.7304 40.2537 38.2907 39.9246 38.9508C39.7384 38.9578 39.5504 39.0094 39.3923 39.1405C38.9154 39.5332 37.4433 40.5156 36.2968 40.3405C35.8391 40.2677 35.4832 40.0126 35.1834 39.5455C34.9198 39.136 34.3701 39.0167 33.9651 39.2803C33.555 39.5439 33.4331 40.0904 33.6996 40.5008C34.2716 41.3921 35.0801 41.9396 36.0347 42.0844C36.2174 42.1137 36.4007 42.1219 36.5815 42.1219C37.5255 42.1219 38.4357 41.7742 39.1491 41.3966C39.042 42.2048 39.0798 43.0334 39.4064 43.8145C40.1712 45.6521 42.129 46.6618 45.2273 46.8272L45.2711 46.8288C45.7417 46.8288 46.1272 46.4637 46.1533 45.9894C46.1776 45.5125 45.8037 45.0968 45.3177 45.0713Z" fill="#5F5AD9"/>
<path d="M39.9249 31.8742C39.5378 31.9832 39.1132 31.8777 38.6219 31.5366C38.226 31.2581 37.6704 31.3573 37.3948 31.7608C37.1214 32.1608 37.2171 32.7104 37.6187 32.9879C38.3847 33.5155 39.0685 33.6805 39.6332 33.6805C39.9403 33.6805 40.2096 33.6323 40.4301 33.5671C42.1139 33.0707 42.9372 31.1784 43.0229 30.9715C44.2242 28.1217 45.3621 28.2156 45.4462 28.2096C45.9029 28.3406 46.3666 28.0861 46.5181 27.6398C46.6696 27.1752 46.4198 26.6763 45.9618 26.5229C45.6916 26.4344 43.2884 25.7843 41.3942 30.2905C41.238 30.654 40.6729 31.6537 39.9249 31.8742Z" fill="#5F5AD9"/>
<path d="M36.2814 24.3566L36.6196 24.2902C37.0688 24.105 37.283 23.5897 37.0965 23.1371C34.7872 17.5606 36.911 9.27417 36.9277 9.19133C37.0524 8.71857 36.7689 8.23667 36.2968 8.11509C35.8228 7.9806 35.3453 8.27352 35.2247 8.74345C35.1283 9.10535 32.9317 17.6822 35.4684 23.8136C35.6083 24.1522 35.9314 24.3566 36.2814 24.3566Z" fill="#5F5AD9"/>
<path d="M38.26 48.0508C38.7406 47.9749 39.0685 47.5233 38.9923 47.0452C38.9157 46.5617 38.4512 46.2382 37.985 46.3103C37.8023 46.3396 33.5185 47.0634 32.3622 51.4531C32.2378 51.9237 32.5188 52.4046 32.9878 52.5287L33.2123 52.5599C33.6064 52.5599 33.9651 52.2978 34.0656 51.9013C34.9232 48.6508 38.1066 48.0748 38.26 48.0508Z" fill="#5F5AD9"/>
<path d="M45.1143 47.241C44.7039 46.991 44.1558 47.122 43.9023 47.5374C42.21 50.3331 38.6978 54.604 36.471 54.083C35.9919 53.9816 35.5226 54.2758 35.4165 54.7523C35.3091 55.2308 35.6089 55.6998 36.0845 55.8084C36.3327 55.8585 36.574 55.8878 36.8256 55.8878C40.7904 55.8878 44.9278 49.2556 45.4084 48.454C45.6658 48.0335 45.5332 47.4924 45.1143 47.241Z" fill="#5F5AD9"/>
<path d="M51.8274 28.7882C52.1632 28.4427 52.1585 27.8902 51.8189 27.5491C51.4762 27.2052 50.9159 27.2052 50.5707 27.5491C50.4743 27.6448 48.2718 29.9249 48.6749 36.1036C48.4582 37.4409 47.479 40.938 45.5587 41.1931C45.0802 41.2583 44.7388 41.7021 44.8012 42.1855C44.8613 42.6284 45.2409 42.9509 45.6743 42.9509L45.7921 42.9446C49.4743 42.4526 50.3918 36.5237 50.4315 36.2721L50.4394 36.0859C50.0778 30.7747 51.7824 28.8411 51.8274 28.7882Z" fill="#5F5AD9"/>
<path d="M37.2231 29.6622C37.7037 29.5932 38.0411 29.1469 37.9746 28.665C37.9015 28.1806 37.4448 27.8515 36.9777 27.9145C36.2303 28.0225 33.3881 28.1636 33.0451 26.9211C32.9175 26.4505 32.4347 26.1796 31.9625 26.3021C31.4904 26.4307 31.2145 26.9157 31.3421 27.3853C31.8917 29.4046 34.2511 29.7535 35.8247 29.7535C36.5173 29.752 37.064 29.683 37.2231 29.6622Z" fill="#5F5AD9"/>
</svg>
